<svg width="301" height="250" viewBox="0 0 301 250" fill="none" xmlns="http://www.w3.org/2000/svg">
<path d="M151.088 67.8266C148.528 68.7543 144.316 71.621 141.959 76.6492C139.269 82.3825 137.237 92.8564 137.237 99.4247C137.237 105.993 137.441 120.558 139.909 129.177C142.368 137.795 146.477 141.691 149.966 143.333C153.454 144.976 159.41 144.15 161.664 142.1C163.51 141.283 164.336 140.662 165.56 139.02C156.534 131.013 151.459 124.696 148.936 116.04C146.422 107.384 144.01 101.262 143.806 96.1313C143.601 91.001 145.039 81.3527 148.732 77.8645C154.27 84.2287 157.962 87.7169 163.297 89.3589C168.631 91.001 174.791 91.8174 179.922 89.9712C184.235 92.4297 188.336 94.6933 190.998 95.3056C188.54 90.7876 185.46 86.483 180.738 82.3732C187.102 84.6276 190.182 87.5035 192.845 91.604C195.516 95.7045 197.159 100.631 195.516 104.945C193.874 109.258 190.59 115.001 190.59 119.723C190.59 124.445 191.62 131.422 194.283 134.706C200.851 137.582 205.573 134.502 209.469 129.78C213.366 125.057 215.629 118.285 215.833 113.776C216.038 109.258 214.6 101.262 211.937 97.1518C209.265 93.0513 204.757 88.3292 201.881 83.8112C199.005 79.2932 194.292 70.6747 188.54 66.9824C182.797 63.2901 173.966 61.0357 170.273 60.8224C166.581 60.6183 165.347 63.0767 168.835 64.5147C172.324 65.9526 184.022 70.2572 188.327 75.1834C180.525 72.9291 173.864 72.1034 168.937 70.7675C165.644 69.8769 162.063 68.309 158.983 67.1772C156.914 66.4536 153.714 66.8804 151.088 67.8266Z" fill="#D44B4B"/>
<path d="M19.4541 242.256L115.491 248.416L112.207 236.513L16.7822 231.383L19.4541 242.256Z" fill="#D44B4B"/>
<path d="M78.197 41.1329C81.509 45.7529 83.4201 48.3691 84.4777 50.0668C85.5353 51.7645 85.9249 54.2786 84.5519 56.2918C83.1696 58.3049 80.1267 62.5539 78.429 64.6783C82.1491 61.5983 85.5074 59.5109 87.1031 58.342C88.6988 57.1731 90.749 56.9041 92.2705 57.9153C94.8217 59.613 97.5399 61.2736 102.29 64.5299C98.8572 60.1047 97.1596 56.9226 95.499 54.8352C94.7011 53.8333 94.2187 51.7367 95.1464 50.3729C96.204 48.8144 99.9613 43.8603 102.689 40.502C98.9037 43.2944 93.5229 47.2651 92.1406 47.7939C90.7583 48.3227 89.5894 48.3598 87.6783 47.228C85.1734 45.7529 82.6779 44.2964 78.197 41.1329Z" fill="#D44B4B"/>
<path d="M64.8652 78.5665C66.5722 80.9508 67.5556 82.2959 68.103 83.168C68.6503 84.04 68.8544 85.3389 68.14 86.3779C67.4257 87.417 65.8579 89.6063 64.9858 90.701C66.8969 89.1147 68.6317 88.0385 69.4574 87.4355C70.2738 86.8325 71.3407 86.6933 72.12 87.2129C73.4373 88.0849 74.8382 88.9477 77.2781 90.6268C75.5061 88.3447 74.6341 86.7026 73.7806 85.6264C73.3724 85.1069 73.1219 84.0308 73.595 83.3257C74.1424 82.5279 76.072 79.9674 77.4822 78.2418C75.534 79.6798 72.7601 81.7208 72.0458 81.9991C71.3314 82.2681 70.7284 82.2867 69.745 81.7115C68.4648 80.9507 67.1752 80.1993 64.8652 78.5665Z" fill="#D44B4B"/>
<path d="M125 31.3247C126.707 33.7089 127.69 35.0541 128.238 35.9262C128.785 36.7982 128.989 38.097 128.275 39.1361C127.561 40.1751 125.993 42.3645 125.121 43.4592C127.032 41.8728 128.767 40.7967 129.592 40.1936C130.409 39.5906 131.475 39.4515 132.255 39.971C133.572 40.8431 134.973 41.7058 137.413 43.385C135.641 41.1028 134.769 39.4608 133.915 38.3846C133.507 37.8651 133.257 36.7889 133.73 36.0839C134.277 35.286 136.207 32.7256 137.617 31C135.669 32.438 132.895 34.4789 132.181 34.7572C131.466 35.0263 130.863 35.0448 129.88 34.4697C128.59 33.7089 127.31 32.9575 125 31.3247Z" fill="#D44B4B"/>
<path d="M203.235 82.1413C202.836 82.1413 202.447 81.9187 202.243 81.5383C200.146 77.4656 196.834 71.6025 192.381 67.7246C186.481 62.5944 176.072 58.1877 169.893 58.1877C169.81 58.1877 169.717 58.1877 169.633 58.1877C161.868 58.3454 157.044 59.6999 154.901 62.3253C154.511 62.7984 153.806 62.8726 153.333 62.483C152.86 62.0934 152.786 61.3883 153.176 60.9152C156.617 56.7033 164.188 56.0725 169.587 55.9519C169.689 55.9519 169.791 55.9519 169.893 55.9519C176.638 55.9519 187.51 60.5163 193.856 66.0362C198.597 70.1645 202.048 76.2782 204.237 80.5086C204.515 81.0559 204.302 81.7239 203.755 82.0115C203.578 82.095 203.411 82.1413 203.235 82.1413Z" fill="#475658"/>
<path d="M191.184 96.6787C191.054 96.6787 190.924 96.6601 190.794 96.6045C186.824 95.1294 182.482 92.9771 179.55 91.4464C175.45 89.2941 165.199 83.635 158.705 77.5677C158.259 77.1503 158.232 76.4452 158.649 75.9906C159.066 75.5453 159.771 75.5175 160.226 75.935C166.516 81.8167 176.563 87.3552 180.58 89.4611C183.456 90.964 187.705 93.0699 191.564 94.5079C192.14 94.7212 192.436 95.3613 192.223 95.9365C192.065 96.4004 191.639 96.6787 191.184 96.6787Z" fill="#475658"/>
<path d="M192.112 131.468C191.722 131.468 191.342 131.264 191.138 130.893C189.282 127.581 188.865 122.376 190.071 117.636C190.488 115.975 191.268 114.101 192.093 112.116C193.179 109.5 194.301 106.791 194.719 104.314C195.563 99.3505 193.364 91.8174 187.538 87.0304C187.065 86.6408 186.991 85.9357 187.38 85.4626C187.77 84.9894 188.475 84.9152 188.948 85.3141C194.663 90.0084 198.012 98.163 196.917 104.685C196.453 107.403 195.285 110.233 194.143 112.969C193.355 114.88 192.603 116.68 192.223 118.183C191.008 122.979 191.778 127.479 193.077 129.807C193.373 130.346 193.188 131.023 192.65 131.32C192.483 131.422 192.288 131.468 192.112 131.468Z" fill="#475658"/>
<path d="M136.82 118.73C136.272 118.73 135.799 118.332 135.716 117.775C134.974 112.58 134.296 106.355 133.953 101.531C133.183 90.6949 136.727 79.2654 138.944 74.2093C141.579 68.1977 145.049 64.6631 149.845 63.0953C150.429 62.9097 151.06 63.2252 151.246 63.8096C151.441 64.3941 151.116 65.0249 150.531 65.2105C146.32 66.5835 143.369 69.6357 140.976 75.0999C138.842 79.9612 135.437 90.9732 136.17 101.373C136.504 106.151 137.172 112.32 137.915 117.459C137.998 118.072 137.581 118.628 136.968 118.721C136.922 118.721 136.875 118.73 136.82 118.73Z" fill="#475658"/>
<path d="M153.212 135.531C150.29 135.531 147.711 133.954 145.744 132.526C143.026 130.559 138.415 125.855 136.847 120.966C136.662 120.382 136.977 119.751 137.571 119.565C138.156 119.38 138.786 119.705 138.972 120.289C140.364 124.631 144.668 128.991 147.052 130.726C149.845 132.748 151.895 133.509 153.908 133.268C154.502 133.194 155.077 133.63 155.142 134.242C155.216 134.854 154.78 135.402 154.168 135.476C153.853 135.513 153.528 135.531 153.212 135.531Z" fill="#475658"/>
<path d="M195.266 126.894C194.839 126.894 194.431 126.644 194.245 126.226C193.995 125.661 194.255 125.011 194.821 124.761C202.91 121.198 207.669 106.744 205.174 98.9516C204.988 98.3671 205.313 97.7363 205.898 97.5508C206.491 97.3652 207.113 97.6899 207.298 98.2744C210.1 107.051 204.886 122.757 195.711 126.792C195.572 126.867 195.414 126.894 195.266 126.894Z" fill="#475658"/>
<path d="M201.565 133.491C201.157 133.491 200.758 133.259 200.563 132.869C200.294 132.322 200.517 131.654 201.064 131.375C206.9 128.499 209.887 118.647 208.152 112.895C207.976 112.311 208.31 111.689 208.894 111.504C209.488 111.327 210.1 111.661 210.286 112.246C212.763 120.475 207.809 130.522 202.048 133.361C201.899 133.453 201.723 133.491 201.565 133.491Z" fill="#475658"/>
<path d="M146.552 101.688C146.31 101.688 146.06 101.605 145.856 101.447C145.373 101.067 145.299 100.362 145.679 99.8793C147.479 97.625 152.517 96.1777 155.662 96.9941C156.255 97.1518 156.617 97.7548 156.46 98.3486C156.302 98.9423 155.69 99.2949 155.105 99.1464C152.795 98.5434 148.695 99.666 147.424 101.262C147.201 101.54 146.876 101.688 146.552 101.688Z" fill="#475658"/>
<path d="M169.327 102.662C169.578 103.822 170.719 104.564 171.878 104.314C173.038 104.063 173.78 102.922 173.53 101.763C173.279 100.603 172.138 99.8608 170.979 100.111C169.819 100.352 169.086 101.494 169.327 102.662Z" fill="#475658"/>
<path d="M150.429 107.403C150.68 108.563 151.821 109.305 152.981 109.054C154.14 108.804 154.883 107.663 154.632 106.503C154.382 105.344 153.24 104.601 152.081 104.852C150.921 105.102 150.188 106.243 150.429 107.403Z" fill="#475658"/>
<path d="M160.31 119.491C160.254 119.491 160.198 119.491 160.143 119.482C159.53 119.389 159.113 118.823 159.206 118.22C159.632 115.335 159.809 109.722 159.113 107.153C158.955 106.559 159.308 105.947 159.901 105.789C160.495 105.631 161.107 105.984 161.265 106.577C162.072 109.574 161.868 115.456 161.404 118.545C161.33 119.092 160.848 119.491 160.31 119.491Z" fill="#475658"/>
<path d="M179.931 122.043C179.653 121.495 178.985 121.273 178.437 121.542C174.188 123.666 161.488 125.726 158.714 124.334C158.167 124.056 157.499 124.278 157.22 124.835C156.942 125.382 157.165 126.05 157.721 126.329C158.12 126.533 158.631 126.681 159.224 126.792C161.033 130.346 164.958 132.813 168.668 132.813C169.04 132.813 169.401 132.786 169.763 132.739C174.207 132.127 177.946 128.407 178.827 123.814C179.05 123.722 179.254 123.629 179.43 123.536C179.987 123.267 180.209 122.599 179.931 122.043ZM169.457 130.54C166.832 130.902 163.779 129.39 161.98 127.024C162.017 127.024 162.054 127.024 162.091 127.024C166.386 127.024 172.296 125.939 176.285 124.724C175.2 127.776 172.537 130.114 169.457 130.54Z" fill="#475658"/>
<path d="M177.51 90.9732C177.333 90.3795 176.721 90.0455 176.127 90.2217C173.613 90.9639 168.455 90.3052 163.288 88.589C158.065 86.8448 153.454 82.5959 150.624 76.9183C150.355 76.3709 149.678 76.1483 149.131 76.4173C148.583 76.6956 148.361 77.3636 148.63 77.9109C151.719 84.1174 156.803 88.7745 162.583 90.7041C164.763 91.4278 167.462 92.1143 170.06 92.4761C168 92.9956 166.024 93.7563 164.605 94.7397C164.095 95.0923 163.974 95.7787 164.317 96.289C164.531 96.6044 164.883 96.7714 165.236 96.7714C165.449 96.7714 165.672 96.7065 165.867 96.5766C168.028 95.083 172.444 93.9141 176.118 93.8677C176.73 93.8584 177.222 93.3481 177.213 92.7358C177.213 92.541 177.138 92.3648 177.046 92.207C177.454 91.9287 177.658 91.4463 177.51 90.9732Z" fill="#475658"/>
<path d="M170.598 170.228C165.941 170.228 159.966 169.551 156.45 166.536C155.986 166.137 155.931 165.432 156.33 164.968C156.729 164.504 157.434 164.448 157.897 164.847C163.519 169.662 179.003 168.271 187.195 165.2C187.77 164.986 188.41 165.274 188.623 165.849C188.837 166.424 188.549 167.065 187.974 167.278C183.298 169.031 177.073 170.126 171.321 170.219C171.09 170.228 170.848 170.228 170.598 170.228Z" fill="#475658"/>
<path d="M158.9 142.063C158.519 141.58 157.814 141.506 157.332 141.886C153.426 145.004 148.528 142.239 146.181 139.623C143.852 137.016 141.171 131.848 139.807 127.349C139.631 126.765 139.009 126.421 138.416 126.607C137.831 126.783 137.497 127.405 137.673 127.998C139.139 132.86 141.959 138.25 144.52 141.116C144.733 141.358 144.975 141.589 145.216 141.831C141.356 142.471 133.499 144.326 130.446 145.087C127.459 145.829 121.689 148.121 121.216 151.442C121.132 152.054 121.55 152.611 122.162 152.704C122.218 152.713 122.273 152.713 122.32 152.713C122.867 152.713 123.34 152.314 123.424 151.757C123.628 150.31 127.162 148.204 130.994 147.249C134.065 146.479 142.052 144.595 145.772 144.002C146.273 143.918 146.617 143.519 146.682 143.046C148.583 144.438 150.986 145.532 153.482 145.532C155.244 145.532 157.044 144.994 158.723 143.649C159.206 143.241 159.28 142.545 158.9 142.063Z" fill="#475658"/>
<path d="M124.24 170.543C123.72 170.543 123.256 170.182 123.145 169.653C122.459 166.202 122.106 162.092 122.134 157.787C122.134 157.175 122.635 156.683 123.247 156.683H123.256C123.869 156.683 124.37 157.194 124.36 157.806C124.333 161.962 124.667 165.905 125.325 169.217C125.446 169.82 125.056 170.404 124.453 170.525C124.388 170.534 124.314 170.543 124.24 170.543Z" fill="#475658"/>
<path d="M172.166 232.951C172.036 232.951 171.915 232.932 171.786 232.886C171.21 232.673 170.914 232.032 171.118 231.457C173.149 225.863 178.205 215.76 184.644 204.442C189.551 195.814 195.628 187.27 200.99 179.737C203.495 176.221 205.879 172.872 208.022 169.69L198.457 168.771C197.938 168.725 197.53 168.326 197.455 167.807C197.391 167.296 197.687 166.795 198.17 166.619L209.414 162.454C209.442 162.277 209.479 162.092 209.516 161.897C210.007 159.17 210.842 154.596 208.254 146.488C208.069 145.903 208.393 145.272 208.978 145.087C209.562 144.901 210.193 145.226 210.379 145.811C213.125 154.448 212.243 159.355 211.705 162.296C211.631 162.723 211.557 163.094 211.52 163.428C211.464 163.836 211.186 164.179 210.805 164.328L203.504 167.037L210.091 167.668C210.481 167.705 210.824 167.946 210.991 168.298C211.158 168.651 211.13 169.068 210.917 169.393C208.495 173.058 205.731 176.935 202.808 181.045C197.474 188.541 191.435 197.03 186.583 205.555C180.209 216.772 175.209 226.745 173.214 232.227C173.047 232.673 172.621 232.951 172.166 232.951Z" fill="#475658"/>
<path d="M156.524 232.626C156.126 232.626 155.745 232.413 155.541 232.042C153.769 228.739 150.661 221.559 147.665 214.61C146.31 211.484 144.984 208.413 143.815 205.787C139.779 196.714 135.206 178.902 137.655 167.714C137.766 167.213 138.202 166.851 138.712 166.842C139.287 166.823 142.265 166.731 144.993 166.656C144.863 166.601 144.733 166.545 144.603 166.489C141.792 165.283 139.909 164.476 139.343 164.152C138.852 163.873 138.647 163.28 138.87 162.76C139.918 160.246 149.836 149.642 152.433 146.933C152.86 146.488 153.565 146.479 154.01 146.905C154.456 147.332 154.465 148.037 154.038 148.482C149.65 153.047 143.416 159.958 141.477 162.714C142.516 163.177 144.112 163.864 145.485 164.458C151.153 166.888 151.153 166.888 150.949 167.872C150.838 168.391 150.364 168.772 149.836 168.772C149.502 168.772 143.87 168.939 139.668 169.059C137.757 179.709 142.163 196.585 145.856 204.906C147.025 207.541 148.361 210.621 149.715 213.757C152.702 220.659 155.782 227.793 157.517 231.021C157.805 231.559 157.601 232.237 157.063 232.524C156.877 232.58 156.701 232.626 156.524 232.626Z" fill="#475658"/>
<path d="M269.233 230.047C269.168 229.435 268.621 228.98 268.008 229.054C267.396 229.119 266.951 229.667 267.016 230.279C268.148 240.911 259.139 243.852 256.347 244.501C249.556 246.078 242.153 243.341 238.145 240.141C234.332 237.089 231.354 227.83 230.668 222.31C229.907 216.224 228.172 208.023 226.929 203.616C225.955 200.175 224.832 195.824 224.749 192.688C224.656 189.33 225.491 185.591 227.031 182.418C227.634 181.175 228.673 179.245 230.176 177.158C230.538 176.657 230.427 175.961 229.926 175.609C229.425 175.247 228.729 175.368 228.376 175.859C226.781 178.076 225.677 180.127 225.037 181.453C223.348 184.932 222.439 189.061 222.541 192.753C222.634 196.13 223.803 200.657 224.805 204.22C225.213 205.657 225.677 207.569 226.15 209.675C226.113 209.758 226.057 209.832 226.038 209.925C225.12 214.397 224.396 225.659 223.97 232.394C223.83 234.509 223.728 236.216 223.645 237.172C223.599 237.784 224.053 238.322 224.665 238.378C224.693 238.378 224.73 238.378 224.758 238.378C225.333 238.378 225.816 237.942 225.871 237.358C225.955 236.383 226.066 234.667 226.196 232.533C226.493 227.941 226.92 221.215 227.449 216.057C227.866 218.33 228.228 220.584 228.478 222.57C229.202 228.405 232.263 238.248 236.781 241.857C240.307 244.677 246.226 247.154 252.293 247.154C253.824 247.154 255.364 246.997 256.885 246.644C263.527 245.123 270.29 239.946 269.233 230.047Z" fill="#475658"/>
<path d="M118.052 249.501C118.024 249.501 118.006 249.501 117.978 249.501L20.1036 243.147C19.4913 243.109 19.0275 242.581 19.0646 241.959C19.1017 241.347 19.6491 240.883 20.2521 240.92L117.987 247.266C134.658 244.121 162.555 238.879 163.306 238.879C163.918 238.879 164.419 239.38 164.419 239.992C164.419 240.586 163.955 241.068 163.371 241.106C162.026 241.263 135.697 246.189 118.265 249.474C118.182 249.492 118.117 249.501 118.052 249.501Z" fill="#475658"/>
<path d="M231.289 240.697C231.28 240.697 231.271 240.697 231.252 240.697L166.025 238.842C165.412 238.823 164.93 238.313 164.939 237.701C164.958 237.089 165.477 236.56 166.08 236.625L231.308 238.48C231.92 238.499 232.403 239.009 232.384 239.621C232.384 240.215 231.892 240.697 231.289 240.697Z" fill="#475658"/>
<path d="M299.309 242.636C299.3 242.636 299.291 242.636 299.272 242.636L270.773 241.82C270.161 241.801 269.678 241.291 269.687 240.679C269.706 240.066 270.198 239.556 270.828 239.593L299.328 240.41C299.94 240.428 300.423 240.939 300.404 241.551C300.404 242.154 299.912 242.636 299.309 242.636Z" fill="#475658"/>
<path d="M160.801 233.61C160.337 233.61 159.901 233.313 159.744 232.849C158.111 227.978 154.484 213.812 152.944 207.754L152.48 205.927C149.372 193.811 148.76 184.821 150.494 176.759C150.708 175.757 150.93 174.7 151.162 173.596C153.101 164.356 155.764 151.702 161.043 141.673C161.33 141.135 161.998 140.921 162.545 141.209C163.093 141.497 163.297 142.165 163.009 142.712C157.87 152.462 155.254 164.94 153.333 174.05C153.101 175.163 152.879 176.221 152.665 177.223C151.005 184.923 151.608 193.606 154.632 205.37L155.096 207.197C156.636 213.228 160.245 227.338 161.85 232.135C162.044 232.719 161.729 233.35 161.145 233.545C161.043 233.591 160.922 233.61 160.801 233.61Z" fill="#475658"/>
<path d="M184.254 136.635C183.864 136.153 183.168 136.079 182.686 136.459C179.114 139.317 174.884 140.133 170.115 138.908C165.848 137.804 163.074 135.717 159.985 132.711C157.183 129.984 153.147 122.97 150.782 117.756C148.88 113.572 147.952 109.249 147.507 107.171C147.349 106.42 147.108 105.538 146.839 104.509C146.264 102.347 145.549 99.6567 145.215 96.9477C144.612 91.9102 145.447 87.1232 147.85 81.8816C148.11 81.325 147.859 80.6663 147.303 80.4065C146.746 80.1468 146.088 80.3973 145.828 80.9539C143.249 86.5851 142.349 91.7525 143.007 97.2168C143.351 100.074 144.093 102.848 144.687 105.084C144.956 106.076 145.178 106.939 145.327 107.635C145.791 109.787 146.746 114.268 148.75 118.675C150.782 123.146 155.04 131.004 158.426 134.298C160.365 136.19 162.211 137.73 164.326 138.945C164.336 139.029 164.336 139.122 164.373 139.205C165.783 142.721 164.744 146.191 161.664 148.241C161.154 148.584 161.014 149.271 161.358 149.781C161.571 150.106 161.924 150.273 162.285 150.273C162.499 150.273 162.712 150.208 162.898 150.087C166.302 147.814 167.805 144.076 166.998 140.207C167.805 140.523 168.64 140.81 169.559 141.051C171.154 141.46 172.713 141.664 174.216 141.664C177.834 141.664 181.183 140.495 184.068 138.185C184.56 137.814 184.634 137.109 184.254 136.635Z" fill="#475658"/>
<path d="M162.879 236.356C162.768 236.374 151.561 238.091 140.503 239.881C127.311 242.015 121.587 242.989 119.1 243.666C118.729 242.07 117.987 238.814 117.013 234.435C117.022 234.435 117.032 234.445 117.032 234.445L160.708 236.541C160.727 236.541 160.746 236.541 160.764 236.541C161.358 236.541 161.85 236.077 161.877 235.484C161.905 234.871 161.432 234.352 160.82 234.315L117.143 232.218C116.93 232.209 116.725 232.274 116.549 232.376C115.083 225.826 113.182 217.263 111.15 208.088C111.744 207.606 112.291 207.17 112.792 206.771C114.211 205.639 115.343 204.739 116.475 203.607C117.236 202.847 119.24 201.789 121.188 201.826C122.31 201.845 123.21 202.216 123.887 202.921C123.999 203.041 124.129 203.125 124.277 203.181C124.926 207.773 126.633 212.625 129.676 219.147C131.346 222.728 132.701 229.787 132.868 230.975C132.858 231.105 132.877 231.244 132.923 231.374C133.053 231.763 133.397 232.07 133.805 232.144C133.87 232.153 133.925 232.162 133.99 232.162C134.334 232.162 134.668 232.005 134.881 231.726C135.187 231.327 135.326 231.142 134.157 226.104C133.61 223.729 132.729 220.427 131.699 218.21C126.281 206.576 125.223 200.555 127.005 191.389C127.598 188.337 127.506 184.914 126.726 180.906C126.606 180.303 126.04 179.904 125.418 180.025C124.815 180.145 124.416 180.73 124.537 181.333C125.26 185.044 125.353 188.198 124.815 190.963C124.156 194.339 123.869 197.317 124.008 200.258C123.192 199.831 122.255 199.609 121.234 199.59C121.197 199.59 121.16 199.59 121.123 199.59C118.646 199.59 116.141 200.806 114.916 202.021C113.868 203.069 112.792 203.932 111.419 205.017C111.168 205.222 110.899 205.435 110.621 205.648C108.023 193.94 105.268 181.463 102.977 171.072C104.823 169.514 110.797 164.411 113.182 161.777C113.608 161.303 114.044 160.775 114.499 160.237C116.02 158.409 117.755 156.349 119.583 155.709C120.167 155.505 120.473 154.874 120.269 154.29C120.065 153.705 119.434 153.399 118.85 153.603C116.438 154.438 114.499 156.758 112.792 158.799C112.356 159.318 111.938 159.819 111.53 160.274C109.573 162.454 104.832 166.564 102.439 168.605C102.068 166.916 101.706 165.283 101.362 163.734C101.251 163.224 100.797 162.862 100.277 162.862H94.3304C94.3396 162.843 94.3489 162.834 94.3489 162.825L95.991 158.205C96.0559 158.019 96.0559 157.824 96.0188 157.639C96.093 157.231 96.0281 156.591 95.2302 155.941C94.553 155.385 93.9036 155.106 93.3748 154.911L93.6532 153.845C93.7366 153.511 93.6531 153.177 93.4676 152.917C93.4212 152.379 93.0037 151.989 92.4842 151.933C93.6346 149.289 97.0022 141.673 98.3752 139.456C100.091 136.682 101.854 134.4 104.127 131.616C104.73 130.884 105.259 130.29 105.713 129.78C107.077 128.24 107.986 127.228 108.228 125.206C108.395 123.814 108.487 121.449 108.571 119.361C108.626 118.016 108.673 116.745 108.738 116.068C108.923 113.897 107.634 112.255 106.205 110.808C105.045 109.63 103.988 108.201 102.522 106.225L102.402 106.058C101.706 105.121 100.741 104.694 99.739 104.88C98.5608 105.102 97.4753 106.197 97.1042 107.552C96.8537 108.479 96.8445 109.37 96.9743 110.214C96.7053 110.186 96.427 110.195 96.1579 110.233C95.4343 110.325 94.7942 110.632 94.284 111.077C93.5511 110.706 92.7254 110.585 91.9368 110.761C91.4637 110.863 91.037 111.068 90.6659 111.337C90.1464 110.863 89.5341 110.539 88.8661 110.409C87.9662 110.233 86.5283 110.316 84.7842 111.726C83.3184 112.914 82.0474 114.11 80.9156 115.159C80.2569 115.771 79.6724 116.318 79.1715 116.754C77.9283 117.821 77.2418 119.556 77.0841 122.061C77.0191 123.017 76.8986 124.25 76.7594 125.568C76.5368 127.785 76.277 130.299 76.277 132.099V133.305C76.2955 135.773 76.3048 138.315 75.841 140.235C75.4792 141.719 74.8854 143.556 74.2546 145.319C73.2526 145.263 71.2766 145.272 70.6087 146.479C70.4602 146.618 70.3303 146.794 70.2747 147.007L69.2078 151.423C69.2078 151.414 69.2171 151.405 69.2171 151.386C69.2171 150.774 68.7161 150.273 68.1038 150.273C66.1927 150.273 64.3929 150.458 63.9754 151.692C63.7992 151.841 63.6508 152.026 63.5858 152.267L61.1923 161.906C61.1088 162.259 61.2109 162.602 61.4242 162.862H1.11339C0.770139 162.862 0.454713 163.02 0.241338 163.279C0.0279629 163.549 -0.0462363 163.892 0.0279811 164.226L17.5711 239.983C17.7103 240.586 18.3133 240.957 18.907 240.818C19.51 240.679 19.8811 240.085 19.7419 239.482L2.51423 165.088H99.3679C99.5998 166.137 100.027 168.094 100.611 170.71C100.62 170.85 100.639 170.97 100.694 171.1C102.383 178.754 105.259 191.76 108.135 204.776C110.38 214.916 112.634 225.056 114.332 232.654C115.185 236.458 115.89 239.621 116.401 241.848C116.651 242.961 116.855 243.833 116.994 244.427C117.236 245.447 117.412 246.199 118.256 246.199C118.312 246.199 118.367 246.199 118.432 246.19C118.637 246.171 118.822 246.087 118.971 245.976C121.466 245.123 146.644 241.096 163.223 238.554C163.835 238.462 164.252 237.896 164.15 237.283C164.048 236.68 163.482 236.272 162.879 236.356ZM96.4455 112.431C96.965 112.357 97.4753 112.57 97.8464 112.997C98.7184 114.444 99.0896 115.483 99.0896 116.439C99.0896 117.636 98.9782 119.102 98.8205 119.918C98.6999 120.567 98.1618 121.226 97.6516 121.365C97.5496 121.393 97.2712 121.458 96.8723 121.133C97.0671 120.159 96.9929 119.222 96.928 118.461C96.7888 116.819 96.5384 114.871 95.7405 112.737C95.9261 112.589 96.1672 112.468 96.4455 112.431ZM90.8421 121.922C91.8534 120.948 92.0853 119.5 92.1688 118.09C92.2615 116.671 92.308 115.02 91.8441 113.266C91.974 113.099 92.1688 112.979 92.4007 112.932C92.7903 112.849 93.2078 112.979 93.5696 113.266C94.3489 115.252 94.5994 117.107 94.72 118.666C94.8499 120.243 94.8591 121.337 93.7923 122.228L93.4397 122.516C92.6419 123.184 91.2968 124.306 90.9257 124.121C90.7123 124.018 90.1 123.722 89.9423 122.571C90.2855 122.376 90.6009 122.163 90.8421 121.922ZM78.0026 140.764C78.5314 138.584 78.5128 135.893 78.5035 133.296V132.099C78.5035 130.41 78.754 127.961 78.9767 125.8C79.1158 124.464 79.2457 123.202 79.3013 122.209C79.422 120.345 79.8487 119.111 80.6187 118.452C81.1475 117.998 81.7598 117.432 82.437 116.792C83.541 115.762 84.7841 114.593 86.185 113.461C87.0385 112.775 87.8085 112.468 88.4394 112.598C89.0053 112.71 89.3856 113.164 89.6268 113.572C90.0814 115.103 90.0443 116.578 89.9608 117.96C89.8773 119.278 89.6917 119.964 89.3114 120.326C88.8939 120.725 87.827 121.208 87.1127 121.17C86.018 121.152 85.6562 120.864 85.3779 120.345C85.3408 120.271 85.3315 120.224 85.3315 120.215C85.3501 120.159 85.6191 119.881 86.4819 119.816C87.0663 119.77 87.521 119.278 87.5117 118.693C87.5024 118.109 87.0478 117.627 86.4541 117.589C86.0366 117.571 85.3222 117.46 85.2573 116.968C85.1831 116.356 84.6265 115.92 84.0142 116.003C83.4019 116.077 82.9751 116.634 83.0493 117.246C83.1235 117.812 83.3369 118.304 83.6802 118.693C83.5596 118.833 83.4575 118.981 83.3647 119.139C82.9844 119.834 83.0029 120.66 83.4111 121.402C84.3574 123.128 85.9438 123.36 87.057 123.378C87.0849 123.378 87.1034 123.378 87.1313 123.378C87.3539 123.378 87.5859 123.351 87.8271 123.313C88.1239 124.612 88.8568 125.596 89.9794 126.124C90.0165 126.143 90.0536 126.152 90.1 126.162C87.6137 128.138 85.5449 130.661 85.48 133.435C85.4614 134.047 85.9531 134.557 86.5654 134.576C86.5747 134.576 86.5839 134.576 86.5932 134.576C87.1962 134.576 87.6879 134.093 87.7065 133.49C87.7992 129.631 94.2469 125.651 97.5124 124.464C97.9299 124.315 98.1897 123.935 98.2361 123.518C98.2454 123.518 98.2453 123.518 98.2546 123.518C99.6091 123.146 100.75 121.838 101.028 120.326C101.195 119.417 101.288 118.174 101.316 117.135L102.457 118.499L101.483 116.086C101.613 115.975 101.724 115.845 101.789 115.669C101.975 115.196 102.337 114.806 102.68 114.695C103.264 114.509 103.589 113.879 103.403 113.294C103.218 112.71 102.587 112.385 102.003 112.57C101.492 112.728 101.028 113.044 100.63 113.443C100.398 112.932 100.119 112.394 99.7668 111.819C99.1174 110.186 98.9689 109.138 99.2565 108.099C99.405 107.542 99.8503 107.088 100.147 107.032C100.286 107.013 100.435 107.115 100.611 107.347L100.732 107.514C102.253 109.565 103.348 111.049 104.619 112.339C106.094 113.841 106.613 114.788 106.521 115.845C106.456 116.569 106.409 117.812 106.354 119.241C106.27 121.291 106.177 123.62 106.029 124.918C105.871 126.245 105.342 126.839 104.062 128.277C103.589 128.806 103.051 129.418 102.42 130.188C100.082 133.045 98.2824 135.392 96.5012 138.268C94.8313 140.968 90.6566 150.579 90.1093 151.822C86.2592 151.497 79.1065 150.291 75.3493 148.807C76.2863 146.33 77.4274 143.148 78.0026 140.764ZM73.4289 147.545C73.4011 147.629 73.364 147.722 73.3361 147.805C73.2155 147.722 73.1042 147.638 73.0115 147.573C73.1321 147.555 73.2712 147.545 73.4289 147.545ZM71.9446 149.54C72.26 149.763 72.6125 149.995 73.0207 150.217C76.8985 152.342 87.187 153.984 91.2689 154.132L90.536 156.962C86.4447 156.665 76.1378 155.635 70.8406 154.123L71.9446 149.54ZM68.0945 152.509C68.5398 152.509 68.9202 152.24 69.0965 151.869L68.7346 153.362C67.9739 153.037 67.408 152.759 67.0091 152.536C67.2967 152.527 67.6492 152.509 68.0945 152.509ZM92.2616 162.871H63.122C63.224 162.751 63.3075 162.611 63.3446 162.454L65.3949 154.188C66.0907 154.624 67.0462 155.088 68.2986 155.607C73.7536 157.871 89.265 159.133 91.4173 159.253C91.7327 159.272 92.0296 159.281 92.308 159.281C92.6512 159.281 92.9666 159.262 93.245 159.244L92.2337 162.092C92.1409 162.352 92.1595 162.63 92.2616 162.871Z" fill="#475658"/>
<path d="M270.42 128.481C269.4 126.727 268.212 125.225 266.329 123.323L266.264 123.174C264.325 118.851 263.11 116.708 262.21 116.012C261.718 115.641 261.022 115.725 260.651 116.216C260.28 116.708 260.364 117.404 260.856 117.775C261.106 117.97 261.941 118.972 264.232 124.083L264.39 124.427C264.446 124.547 264.52 124.659 264.613 124.751C266.431 126.57 267.554 127.971 268.491 129.594C269.548 131.412 269.548 131.895 268.528 132.813C267.934 133.351 266.951 134.196 265.856 135.151C263.75 136.979 261.134 139.261 259.844 140.485C259.631 140.69 259.408 140.894 259.195 141.098C257.404 142.768 255.558 144.484 255.456 147.156C255.373 149.289 255.428 150.57 255.586 152.305C253.879 152.416 251.755 152.592 249.602 152.852C246.708 153.195 243.869 153.807 241.856 154.29C241.485 151.831 240.91 148.789 240.483 146.516L240.14 144.688C239.722 142.415 239.416 137.387 240.399 133.555C240.492 133.203 240.603 132.832 240.743 132.424C240.937 131.839 240.631 131.208 240.047 131.013C239.462 130.819 238.832 131.125 238.637 131.709C238.479 132.164 238.349 132.6 238.247 132.999C237.171 137.211 237.477 142.536 237.95 145.096L238.293 146.933C238.47 147.842 238.665 148.891 238.859 149.957C237.533 149.02 235.863 148.603 234.323 148.241L233.664 148.083C230.974 147.416 211.362 141.515 208.922 140.782L204.089 136.292C204.821 135.93 205.564 135.485 206.334 134.938C211.056 131.589 214.173 125.456 215.611 122.098C217.698 117.209 217.893 109.175 216.065 103.006C214.915 99.1279 212.642 95.6304 210.629 92.5503C209.469 90.7784 208.384 89.1085 207.67 87.6056C207.41 87.049 206.742 86.8078 206.185 87.0768C205.629 87.3366 205.387 88.0045 205.656 88.5612C206.436 90.2032 207.567 91.938 208.764 93.7749C210.694 96.7251 212.874 100.074 213.932 103.646C215.601 109.286 215.444 116.847 213.57 121.235C212.225 124.38 209.33 130.104 205.053 133.138C201.658 135.541 198.244 136.07 195.182 134.65C194.626 134.39 193.967 134.641 193.707 135.197C193.448 135.754 193.698 136.413 194.255 136.673C194.839 136.942 195.507 137.183 196.24 137.368C197.001 138.741 197.261 143.445 196.732 146.302C195.591 152.472 190.386 163.957 185.358 175.061C181.972 182.53 178.474 190.239 176.266 196.25C173.659 203.348 168.492 221.967 165.997 234.445C165.876 235.048 166.266 235.632 166.869 235.753C166.943 235.771 167.017 235.771 167.091 235.771C167.611 235.771 168.075 235.409 168.186 234.881C170.598 222.83 175.793 203.988 178.363 197.011C180.543 191.074 184.031 183.402 187.39 175.971C192.474 164.745 197.734 153.14 198.93 146.701C199.357 144.419 199.394 140.263 198.717 137.656H198.726C199.682 137.656 200.712 137.517 201.816 137.201L207.623 142.591C207.744 142.703 207.892 142.795 208.059 142.842C208.968 143.111 230.241 149.531 233.154 150.254L233.831 150.421C235.835 150.904 237.728 151.358 238.562 152.787C238.767 153.13 239.119 153.325 239.481 153.334C239.564 153.863 239.648 154.373 239.722 154.865C239.323 154.976 239.082 155.041 239.036 155.06C238.498 155.218 238.164 155.756 238.256 156.303L238.85 159.986C238.665 160.032 238.479 160.07 238.321 160.116C235.408 160.626 232.56 161.461 232.44 161.498C231.874 161.665 231.54 162.24 231.67 162.816C232.226 165.246 233.089 171.61 233.84 177.223C234.443 181.685 235.009 185.906 235.38 187.855C235.733 189.692 236.28 193.004 236.865 196.51C237.663 201.307 238.562 206.752 239.138 209.452C239.23 209.879 239.351 210.51 239.462 211.289C239.407 211.233 239.36 211.159 239.286 211.113C238.776 210.779 238.08 210.927 237.746 211.437C235.612 214.712 234.119 219.926 236.308 224.713C236.494 225.121 236.902 225.362 237.319 225.362C237.477 225.362 237.635 225.325 237.783 225.26C238.34 225 238.59 224.342 238.331 223.785C236.512 219.824 237.802 215.436 239.611 212.653C239.62 212.643 239.62 212.625 239.629 212.606C239.824 214.443 239.917 216.79 239.611 219.286C239.128 223.266 238.887 227.162 241.16 230.938C241.374 231.29 241.735 231.476 242.116 231.476C242.31 231.476 242.505 231.42 242.691 231.318C243.22 231.003 243.387 230.316 243.071 229.787C241.346 226.912 241.309 223.85 241.819 219.536C242.385 214.796 241.652 210.565 241.309 208.96C240.743 206.316 239.843 200.898 239.054 196.121C238.47 192.605 237.922 189.274 237.561 187.409C237.199 185.517 236.633 181.333 236.039 176.898C235.334 171.666 234.61 166.267 234.045 163.335C235.121 163.048 236.939 162.593 238.776 162.268C243.145 161.174 255.707 159.615 259.538 159.429C260.42 167.937 261.69 178.438 262.72 186.946L263.166 190.647C263.731 195.341 264.557 204.127 265.346 212.615C265.643 215.807 265.939 218.97 266.218 221.902C266.273 222.514 266.811 222.969 267.433 222.904C268.045 222.848 268.491 222.301 268.435 221.688C268.157 218.757 267.86 215.593 267.563 212.411C266.765 203.904 265.939 195.109 265.374 190.387L264.928 186.686C263.861 177.854 262.525 166.86 261.653 158.205C261.607 157.713 261.236 157.342 260.763 157.24L260.466 153.149C260.42 152.555 259.919 152.082 259.325 152.119C259.306 152.119 258.759 152.138 257.859 152.184C257.72 150.69 257.646 149.429 257.729 147.249C257.794 145.504 259.167 144.224 260.763 142.74C260.985 142.536 261.208 142.322 261.431 142.118C262.683 140.922 265.281 138.667 267.368 136.849C268.481 135.884 269.465 135.03 270.068 134.492C272.563 132.182 271.274 129.956 270.42 128.481ZM258.276 154.373L258.481 157.249C254.389 157.537 246.04 158.594 240.984 159.522L240.566 156.906C242.273 156.451 246.068 155.505 249.862 155.051C253.276 154.642 256.625 154.457 258.276 154.373Z" fill="#475658"/>
<path d="M240.882 129C241.03 129.075 241.197 129.102 241.355 129.102C241.772 129.102 242.171 128.861 242.366 128.462C243.99 124.983 246.095 121.282 247.339 119.417C247.543 119.111 247.738 118.814 247.923 118.517C247.747 119.083 247.626 119.677 247.589 120.308C246.838 121.263 246.513 122.924 246.179 124.946L246.142 125.169C245.854 126.904 245.938 128.592 246.04 129.863C246.114 130.809 246.68 131.589 247.506 131.895C247.71 131.969 247.979 132.034 248.303 132.034C248.971 132.034 249.89 131.756 250.938 130.717C252.654 129 252.896 127.405 252.923 126.291L252.97 126.254C253.211 126.041 253.452 125.809 253.693 125.577C254.705 126.848 256.402 128.119 258.128 128.119C258.74 128.119 259.241 127.618 259.241 127.006C259.241 126.393 258.74 125.892 258.128 125.892C257.005 125.892 255.475 124.501 255.029 123.601C255.011 123.573 254.992 123.555 254.974 123.527C255.029 123.017 254.742 122.516 254.232 122.358C253.647 122.163 253.016 122.488 252.831 123.072C252.682 123.527 252.042 124.093 251.486 124.603C251.337 124.733 251.198 124.863 251.059 124.983C250.827 125.197 250.697 125.494 250.697 125.8C250.697 126.746 250.697 127.813 249.352 129.149C248.721 129.78 248.331 129.835 248.285 129.835C248.276 129.826 248.257 129.78 248.248 129.696C248.155 128.546 248.081 127.034 248.331 125.54L248.368 125.317C248.526 124.334 248.916 122.033 249.37 121.653C249.407 121.625 249.435 121.588 249.463 121.56C249.472 121.551 249.491 121.551 249.5 121.532C250.196 120.79 251.235 119.667 251.866 119.5C252.608 119.306 254.12 119.695 255.345 120.001L255.966 120.159C256.746 120.354 257.84 120.864 258.907 121.365C259.445 121.616 259.983 121.875 260.484 122.089C260.624 122.154 260.772 122.182 260.92 122.182C261.356 122.182 261.765 121.931 261.941 121.504C262.182 120.938 261.922 120.289 261.356 120.039C260.874 119.834 260.364 119.593 259.844 119.352C258.685 118.805 257.479 118.239 256.486 117.998L255.874 117.849C254.25 117.432 252.571 117.005 251.281 117.348C251.272 117.348 251.272 117.357 251.263 117.357C251.448 117.218 251.634 117.088 251.847 116.986C253.545 116.216 256.838 116.513 258.137 116.875C258.722 117.042 259.343 116.708 259.51 116.114C259.677 115.521 259.334 114.908 258.75 114.741C258.193 114.584 257.237 114.407 256.143 114.324C256.152 114.259 256.171 114.194 256.171 114.12C255.966 111.494 255.15 109.917 253.758 109.435C252.682 109.054 251.467 109.453 250.502 110.502C249.556 111.522 248.647 113.044 247.598 114.797C246.94 115.901 246.253 117.042 245.483 118.202C244.194 120.131 242.023 123.954 240.353 127.535C240.084 128.073 240.325 128.741 240.882 129ZM252.135 111.995C252.497 111.606 252.859 111.466 253.035 111.522C253.285 111.615 253.814 112.301 253.963 114.277V114.287C252.886 114.352 251.819 114.546 250.929 114.955C250.382 115.214 249.899 115.567 249.482 115.975C249.491 115.957 249.5 115.938 249.519 115.919C250.493 114.268 251.346 112.849 252.135 111.995Z" fill="#475658"/>
<path d="M246.782 135.773C246.476 136.311 246.671 136.988 247.199 137.294C247.376 137.396 247.561 137.442 247.747 137.442C248.136 137.442 248.507 137.238 248.712 136.877C251.318 132.284 256.764 130.206 259.037 130.355C259.649 130.383 260.178 129.919 260.215 129.306C260.252 128.694 259.779 128.165 259.167 128.128C255.901 127.952 249.778 130.494 246.782 135.773Z" fill="#475658"/>
<circle cx="209.549" cy="13.2404" r="10" transform="rotate(-18.0817 209.549 13.2404)" stroke="#E0E0E0"/>
<circle cx="204.369" cy="32.8149" r="7" transform="rotate(-18.0817 204.369 32.8149)" stroke="#E0E0E0"/>
<circle cx="199.537" cy="47.0157" r="4" transform="rotate(-18.0817 199.537 47.0157)" stroke="#E0E0E0"/>
</svg>
