<svg width="291" height="246" viewBox="0 0 291 246" fill="none" xmlns="http://www.w3.org/2000/svg">
<path d="M156.979 63.3155C160.875 71.934 169.494 80.3484 179.958 82.1946C186.322 95.1269 188.373 103.95 190.627 113.588C192.881 123.237 195.627 130.751 202.632 133.006C207.168 134.471 211.176 134.546 215.249 133.08C219.711 133.386 222.225 133.488 225.305 132.876C228.385 132.263 229.944 129.768 229.823 128.154C234.953 126.307 236.419 123.766 235.983 120.565C230.24 120.973 226.335 119.953 222.642 116.873C218.95 113.793 216.742 104.84 216.334 97.4555C215.926 90.0709 213.152 77.3148 209.256 70.7558C205.359 64.1876 200.563 57.7492 192.863 54.9846C186.61 52.7395 181.786 52.6004 178.316 53.0642C174.605 53.5559 175.004 55.3 178.928 56.1443C183.892 57.2111 191.091 59.9757 195.757 64.1505C198.939 66.9985 201.166 70.997 202.121 74.0028C203.198 77.4168 200.47 77.4539 197.808 74.0028C193.781 68.7705 185.469 63.0001 181.238 61.3859C177.518 59.9664 174.002 59.2336 169.698 58.612C165.384 57.9997 160.003 59.0759 157.535 59.6881C155.578 60.1798 151.895 61.7662 149.297 64.6885C146.189 68.1953 144.065 75.7655 144.223 83.1594C144.362 89.7276 144.223 100.471 147.117 113.607C149.538 124.573 154.288 132.161 158.686 136.8C162.916 141.262 167.434 146.448 174.615 145.827C180.357 142.134 184.671 139.88 188.567 138.85C186.721 135.362 184.254 131.874 181.999 130.232C177.277 133.108 171.72 134.008 168.148 132.338C164.688 130.723 161.691 124.313 159.224 121.001C156.608 117.485 153.936 113.913 152.915 111.102C151.886 108.282 151.162 105.434 150.605 101.51C150.299 99.3295 147.729 95.3496 147.525 90.4327C147.321 85.5065 146.913 76.888 148.759 72.5834C150.624 68.2417 153.695 64.1319 156.979 63.3155Z" fill="#D44B4B"/>
<path d="M1.84595 161.199L65.3574 161.403L90.2852 236.511L31.1247 232.485L1.84595 161.199Z" fill="#D44B4B"/>
<path d="M265.447 241.827C265.419 241.827 265.382 241.827 265.355 241.827C264.742 241.771 264.288 241.233 264.343 240.621C264.436 239.526 264.538 238.218 264.649 236.734C265.132 230.369 265.855 220.749 267.479 210.739C269.91 195.784 269.845 187.416 268.954 178.761C268.221 171.645 266.644 165.513 264.278 160.522C264.019 159.965 264.251 159.306 264.807 159.037C265.364 158.768 266.022 159.009 266.292 159.566C268.769 164.789 270.411 171.172 271.171 178.529C272.247 188.965 271.849 197.788 269.678 211.091C268.063 221.009 267.34 230.564 266.867 236.891C266.755 238.385 266.653 239.702 266.561 240.806C266.505 241.391 266.022 241.827 265.447 241.827Z" fill="#475658"/>
<path d="M234.99 159.186C234.758 159.186 234.517 159.112 234.313 158.954C233.822 158.583 233.738 157.878 234.109 157.395C237.607 152.849 247.032 149.63 253.164 150.892C253.767 151.013 254.157 151.606 254.027 152.209C253.907 152.812 253.322 153.202 252.71 153.072C247.478 151.996 238.822 154.918 235.872 158.75C235.649 159.037 235.324 159.186 234.99 159.186Z" fill="#475658"/>
<path d="M230.278 164.678C229.749 164.372 229.062 164.548 228.756 165.086C226.233 169.446 222.847 179.66 220.379 187.119C219.284 190.431 218.338 193.298 217.828 194.513C217.067 196.331 216.659 198.539 216.251 200.664C215.787 203.113 215.314 205.655 214.386 206.731C212.67 208.735 213.699 210.581 214.377 211.806C214.748 212.474 215.1 213.114 215.1 213.708C215.1 214.515 214.469 215.183 213.838 215.489C213.616 215.591 212.846 215.906 212.298 215.47C210.443 213.986 207.678 214.422 203.856 215.034L202.548 215.238C198.058 215.934 181.582 217.511 176.173 216.88C170.616 216.231 168.798 215.906 167.666 215.6C166.293 215.229 164.243 215.739 163.241 216.917C159.697 216.379 155.457 215.739 154.743 215.674C154.158 215.619 153.203 215.702 152.646 216.723C152.015 216.686 151.329 216.639 150.605 216.602C147.433 216.407 143.49 216.175 140.688 215.897C137.552 215.582 132.32 214.014 128.498 212.873C127.125 212.464 125.928 212.103 125.056 211.871C124.425 211.704 123.841 211.555 123.275 211.407C124.592 211.036 126.067 210.637 127.524 210.238C132.088 208.986 136.393 207.798 137.571 207.343C141.031 206.008 142.877 204.365 143.054 202.454C143.184 201.072 144.909 198.066 146.941 196.897C149.464 195.45 150.169 194.393 150.587 192.945C150.698 192.574 150.763 192.157 150.847 191.684C151.032 190.561 151.273 189.169 152.117 187.796C153.027 186.312 159.335 173.936 163.937 164.891C166.163 160.522 167.916 157.08 168.445 156.069C169.772 153.545 171.507 150.576 173.195 150.02C173.78 149.825 174.095 149.194 173.9 148.61C173.705 148.025 173.075 147.71 172.49 147.905C170.078 148.712 168.176 151.801 166.479 155.029C165.94 156.059 164.178 159.51 161.951 163.88C157.619 172.378 151.078 185.217 150.216 186.628C149.139 188.372 148.861 190.069 148.648 191.313C148.583 191.721 148.518 192.083 148.444 192.333C148.23 193.066 148.054 193.697 145.837 194.968C143.221 196.461 141.041 200.052 140.836 202.25C140.753 203.206 139.269 204.301 136.773 205.265C135.697 205.683 131.04 206.963 126.93 208.086C123.154 209.125 119.582 210.108 118.284 210.544C117.606 210.498 116.92 210.488 116.168 210.516C115.417 210.544 114.508 210.618 113.534 210.711C113.515 210.702 113.506 210.692 113.487 210.683C113.228 210.6 112.921 210.572 109.183 210.359C106.863 210.229 104.229 210.08 103.273 209.969C102.262 209.848 101.483 210.006 100.833 210.294C100.648 210.052 100.379 209.885 100.045 209.858C96.7142 209.589 95.4154 211.11 94.9052 212.483L94.6269 212.502C92.1127 212.659 90.582 212.761 89.1997 214.431L69.6805 155.735C69.5321 155.28 69.1054 154.974 68.6322 154.974L4.04463 154.426H4.03534C3.42305 154.426 2.93137 154.918 2.9221 155.53C2.91282 156.143 3.41376 156.644 4.02605 156.653L67.8159 157.191L91.018 226.946C91.0273 227.02 91.0644 227.076 91.083 227.141L92.7529 232.169C92.9013 232.624 93.3281 232.93 93.8105 232.93H131.698C133.981 233.125 136.346 233.153 138.406 233.153C138.833 233.153 139.25 233.153 139.649 233.153H151.978C152.201 233.153 152.396 233.069 152.563 232.958C152.628 232.986 152.693 233.004 152.758 233.023L165.05 235.323C165.115 235.333 165.189 235.342 165.254 235.342C165.282 235.342 165.31 235.333 165.337 235.323C165.263 235.5 165.198 235.676 165.124 235.834C165.078 235.926 165.068 236.028 165.05 236.13H92.4096L31.8483 231.408L2.14279 159.436C1.91086 158.87 1.2522 158.601 0.686296 158.833C0.120388 159.065 -0.148672 159.714 0.0832572 160.29L30.0485 232.893C30.2062 233.282 30.5773 233.542 30.9948 233.579L92.3261 238.357H166.247C166.859 238.357 167.36 237.856 167.36 237.244C167.36 237.03 167.286 236.854 167.184 236.687C169.15 232.41 170.06 222.233 168.937 218.151C170.291 218.393 172.342 218.671 175.886 219.088C176.85 219.2 178.103 219.246 179.559 219.246C186.935 219.246 199.283 217.984 202.854 217.437L204.172 217.233C207.437 216.713 209.794 216.342 210.879 217.205C211.918 218.04 213.412 218.142 214.766 217.493C216.306 216.75 217.29 215.266 217.29 213.708C217.29 212.529 216.751 211.565 216.278 210.72C215.518 209.357 215.397 208.921 216.037 208.178C217.345 206.648 217.855 203.939 218.403 201.072C218.783 199.059 219.173 196.972 219.841 195.367C220.379 194.068 221.297 191.312 222.448 187.815C224.888 180.449 228.227 170.355 230.639 166.19C230.992 165.67 230.816 164.984 230.278 164.678ZM97.0111 213.309C97.1781 212.836 97.5213 212.325 98.4676 212.13C98.0223 212.585 97.3822 213.383 96.6864 214.283C96.7977 213.93 96.909 213.596 97.0111 213.309ZM92.456 218.003L92.2519 218.355C91.955 218.856 91.5654 219.497 91.1293 220.118L90.0625 216.917C90.2295 216.825 90.3872 216.695 90.4893 216.519C91.3521 215.099 91.8994 214.923 94.2187 214.765C94.0424 215.387 93.8569 216.036 93.6713 216.686C93.5971 216.955 93.5229 217.224 93.4486 217.474C93.059 217.456 92.6694 217.632 92.456 218.003ZM94.6454 230.713L94.5155 230.332C94.6176 230.434 94.7289 230.536 94.8495 230.638C94.8866 230.666 94.933 230.694 94.9701 230.722H94.6454V230.713ZM95.3319 223.959C94.998 224.831 94.7104 225.888 94.4599 226.816C94.2929 227.438 94.1352 228.032 94.0053 228.356C93.9775 228.43 93.9589 228.514 93.9404 228.597L93.3002 226.659C93.3652 226.334 93.4301 225.972 93.5044 225.555C93.7641 224.089 94.2094 221.621 94.6732 220.888C95.536 219.534 99.2654 214.376 100.184 213.541L100.462 213.29C101.381 212.455 101.835 212.028 103.041 212.168C103.292 212.195 103.644 212.233 104.062 212.26C103.533 212.613 103.153 213.077 102.772 213.559C102.466 213.94 102.114 214.376 101.613 214.886C99.6458 216.853 97.4842 219.617 97.243 219.933C96.473 220.925 96.0184 222.131 95.536 223.412L95.3319 223.959ZM98.8202 230.713C98.9964 230.573 99.1078 230.379 99.1727 230.184C99.3304 230.258 99.4974 230.314 99.6644 230.314C99.887 230.314 100.1 230.239 100.286 230.1C100.332 230.323 100.407 230.527 100.518 230.713H98.8202ZM108.403 230.713C108.997 230.36 109.572 229.924 110.064 229.386C110.658 229.191 111.298 229.006 111.966 228.811C113.775 228.291 115.64 227.753 117.05 226.816C117.384 227.039 117.718 227.262 118.061 227.484C119.777 228.625 121.521 229.776 123.358 230.713H108.403ZM152.294 230.917C152.117 230.796 151.913 230.713 151.681 230.713H131.884C130.594 230.601 129.342 230.444 128.219 230.193C125.112 229.507 122.152 227.54 119.286 225.638C118.72 225.258 118.163 224.887 117.606 224.534C117.189 224.265 116.642 224.302 116.271 224.636C115.185 225.582 113.237 226.139 111.354 226.686C110.584 226.909 109.795 227.132 109.062 227.391C108.877 227.456 108.7 227.577 108.58 227.725C106.687 229.98 103.292 229.878 102.448 229.572C102.475 229.265 102.809 228.495 103.561 227.874L109.146 223.217C110.185 222.345 110.5 222.085 111.483 221.834C112.782 221.51 116.243 220.647 118.794 220.331C119.026 220.304 119.211 220.192 119.369 220.053C120.399 220.025 121.336 220.016 122.059 220.016C122.672 220.016 123.173 219.515 123.173 218.903C123.173 218.291 122.672 217.79 122.059 217.79C120.25 217.79 117.161 217.892 114.443 217.975C112.17 218.049 110.027 218.114 108.997 218.114C108.691 218.114 108.403 218.244 108.19 218.467C106.288 220.48 103.477 221.983 102.392 222.345C102.039 222.465 101.77 222.753 101.668 223.105C100.945 225.749 100.11 227.373 98.9408 228.365C98.7738 228.505 98.681 228.69 98.6253 228.885C98.2635 228.699 97.8089 228.718 97.4657 228.978C97.243 229.145 96.9647 229.136 96.7699 229.108C96.5287 229.061 96.3246 228.959 96.204 228.876C96.3339 228.477 96.4638 227.985 96.6215 227.419C96.8627 226.538 97.1224 225.545 97.4193 224.785L97.6327 224.228C98.0687 223.068 98.449 222.057 99.0149 221.333C99.2469 221.037 101.334 218.365 103.208 216.5C103.802 215.906 104.201 215.396 104.535 214.988C105.156 214.209 105.305 214.042 105.871 213.958L106.214 213.912C108.005 213.652 113.469 212.863 116.289 212.761C119.174 212.659 121.197 213.151 124.527 214.042C125.381 214.264 126.55 214.617 127.904 215.025C131.81 216.194 137.153 217.799 140.512 218.133C143.351 218.42 147.321 218.652 150.512 218.847C151.765 218.921 152.906 218.986 153.806 219.051C153.815 221.853 153.5 228.393 152.294 230.917ZM103.375 225.1C103.477 224.794 103.57 224.497 103.654 224.209C104.238 223.959 104.971 223.588 105.75 223.124L103.375 225.1ZM166.015 233.412C165.866 233.282 165.699 233.18 165.504 233.143L154.622 231.102C156.042 227.122 156.06 219.617 155.995 218.086C158.843 218.495 164.846 219.413 167.054 219.766C167.545 222.994 167.128 229.238 166.015 233.412Z" fill="#475658"/>
<path d="M170.895 214.83C170.394 214.83 169.939 214.496 169.818 213.986C169.586 213.049 169.327 211.964 168.965 210.442C168.557 208.744 168.019 206.49 167.239 203.28C166.785 201.434 166.191 199.56 165.616 197.751C164.308 193.65 162.944 189.401 163.315 185.301C163.946 178.371 165.05 168.621 166.08 163.973C166.21 163.37 166.803 162.999 167.406 163.129C168.009 163.258 168.38 163.852 168.251 164.455C167.239 169.001 166.154 178.631 165.532 185.496C165.198 189.142 166.432 192.992 167.731 197.064C168.325 198.911 168.928 200.822 169.401 202.751C170.18 205.97 170.718 208.225 171.126 209.923C171.488 211.435 171.748 212.511 171.98 213.448C172.128 214.042 171.767 214.645 171.173 214.802C171.071 214.821 170.978 214.83 170.895 214.83Z" fill="#475658"/>
<path d="M237.783 241.502C237.273 241.502 236.818 241.149 236.697 240.639C236.558 240.036 236.939 239.442 237.532 239.303C240.575 238.607 243.219 236.4 245.381 232.744C247.181 229.692 254.89 215.591 259.139 205.071C263.026 195.432 266.653 181.655 265.16 171.905C264.937 170.43 264.603 168.982 264.167 167.581C263.982 166.997 264.316 166.366 264.9 166.19C265.485 166.004 266.115 166.338 266.292 166.923C266.755 168.426 267.117 169.984 267.358 171.571C268.917 181.766 265.197 195.988 261.198 205.905C257.181 215.869 249.723 229.757 247.292 233.876C244.806 238.088 241.689 240.639 238.015 241.474C237.95 241.493 237.866 241.502 237.783 241.502Z" fill="#475658"/>
<path d="M229.099 241.873C225.5 241.873 220.75 241.521 216.13 241.177C211.556 240.834 207.242 240.519 204.042 240.519C196.62 240.519 171.08 238.691 169.373 238.543C168.761 238.487 168.306 237.949 168.362 237.337C168.417 236.724 168.974 236.288 169.568 236.325C171.219 236.474 196.861 238.292 204.042 238.292C207.326 238.292 211.686 238.617 216.297 238.96C221.761 239.368 227.411 239.786 230.983 239.609C231.549 239.582 232.114 240.055 232.152 240.667C232.179 241.279 231.706 241.799 231.094 241.836C230.482 241.855 229.814 241.873 229.099 241.873Z" fill="#475658"/>
<path d="M24.5935 229.952C24.575 229.952 24.5471 229.952 24.5286 229.952L8.39555 228.987C7.78326 228.95 7.31015 228.421 7.34726 227.809C7.38437 227.197 7.91315 226.733 8.52545 226.761L24.6585 227.725C25.2707 227.763 25.7439 228.291 25.7068 228.904C25.6697 229.497 25.178 229.952 24.5935 229.952Z" fill="#475658"/>
<path d="M288.993 245.779C288.974 245.779 288.946 245.779 288.928 245.779L242.802 243.014C242.19 242.977 241.716 242.448 241.754 241.836C241.791 241.224 242.329 240.76 242.932 240.788L289.058 243.552C289.67 243.589 290.143 244.118 290.106 244.73C290.06 245.324 289.577 245.779 288.993 245.779Z" fill="#475658"/>
<path d="M235.018 121.446C230.37 121.446 225.658 118.487 223.329 116.168C220.379 113.217 218.496 107.122 218.032 99.0326C217.781 94.7094 216.557 79.7917 211.157 69.2436C206.751 60.6344 199.672 54.9289 194.625 53.092C194.05 52.8787 193.753 52.2386 193.957 51.6634C194.171 51.0882 194.802 50.7913 195.386 50.9954C200.451 52.8323 208.133 58.4542 213.143 68.2324C218.746 79.1609 219.998 94.4775 220.258 98.9027C220.685 106.343 222.383 112.067 224.906 114.59C227.17 116.854 232.411 120.055 236.809 119.016C237.412 118.876 238.005 119.248 238.154 119.841C238.293 120.444 237.931 121.038 237.328 121.186C236.567 121.363 235.797 121.446 235.018 121.446Z" fill="#475658"/>
<path d="M196.769 105.489C196.258 105.489 195.804 105.137 195.683 104.627C195.349 103.161 195.015 101.649 194.672 100.099L194.375 98.7542C191.898 87.6216 186.703 74.0398 179.532 69.3363C179.021 69.0023 178.873 68.3065 179.216 67.7963C179.55 67.286 180.246 67.1376 180.756 67.4808C190.479 73.8635 195.303 92.6683 196.546 98.2718L196.843 99.617C197.186 101.166 197.52 102.678 197.854 104.135C197.993 104.738 197.613 105.332 197.019 105.471C196.936 105.48 196.852 105.489 196.769 105.489Z" fill="#475658"/>
<path d="M189.106 48.908C184.662 48.1659 177.769 47.7298 170.124 49.8358C164.066 51.5056 154.029 56.5524 153.11 59.6139C153.064 59.7809 153.064 59.9479 153.082 60.1056C152.823 60.0035 152.535 59.9942 152.257 60.0963C150.448 60.8199 147.85 63.1578 146.403 66.2192C145.178 68.8076 143.323 72.7225 142.998 78.2053C142.692 83.3634 142.775 87.6309 142.989 92.4551C143.416 102.242 144.464 110.453 146.004 116.205C149.576 129.545 159.317 142.144 169.16 146.142C169.299 146.198 169.438 146.226 169.577 146.226C170.013 146.226 170.431 145.966 170.607 145.53C170.839 144.964 170.56 144.314 169.995 144.082C160.745 140.325 151.561 128.358 148.147 115.629C146.644 110.035 145.633 101.992 145.206 92.3623C145.002 87.6031 144.918 83.4005 145.215 78.3352C145.512 73.2792 147.182 69.7445 148.407 67.1655C149.668 64.4937 151.895 62.629 153.073 62.1558C153.574 61.9517 153.825 61.4322 153.732 60.922C153.769 60.9405 153.797 60.9683 153.843 60.9776C153.954 61.0054 154.056 61.024 154.158 61.024C154.641 61.024 155.077 60.7086 155.225 60.2262C155.68 58.7047 163.816 53.8528 170.7 51.9602C177.945 49.9564 184.504 50.3738 188.716 51.0789C189.319 51.1809 189.894 50.7728 189.996 50.1605C190.117 49.5853 189.709 49.0101 189.106 48.908Z" fill="#475658"/>
<path d="M159.79 88.6143C159.558 88.6143 159.317 88.5401 159.113 88.3823C158.621 88.0113 158.528 87.3155 158.899 86.8238C161.608 83.2614 166.961 80.9421 171.34 81.4338C171.952 81.4987 172.388 82.0553 172.323 82.6676C172.258 83.2799 171.693 83.7159 171.09 83.651C167.499 83.2521 162.907 85.2374 160.671 88.1782C160.458 88.4658 160.124 88.6143 159.79 88.6143Z" fill="#475658"/>
<path d="M159.196 114.906C159.15 114.906 159.103 114.906 159.057 114.897C158.445 114.822 158.018 114.266 158.092 113.653C158.361 111.529 158.111 107.92 157.257 105.786C157.025 105.211 157.303 104.571 157.879 104.339C158.445 104.107 159.094 104.385 159.326 104.961C160.365 107.549 160.606 111.52 160.3 113.932C160.235 114.498 159.753 114.906 159.196 114.906Z" fill="#475658"/>
<path d="M166.126 98.9954C167.33 98.9954 168.306 98.0194 168.306 96.8153C168.306 95.6112 167.33 94.6352 166.126 94.6352C164.922 94.6352 163.946 95.6112 163.946 96.8153C163.946 98.0194 164.922 98.9954 166.126 98.9954Z" fill="#475658"/>
<path d="M187.139 124.702C186.693 124.276 185.988 124.285 185.562 124.73C181.665 128.775 178.891 130.306 175.672 131.475C172.722 132.551 169.429 132.18 167.286 130.538C165.523 129.183 164.178 126.808 163.092 124.897L162.777 124.341C162.666 124.137 162.517 123.905 162.378 123.682C165.356 122.671 170.106 120.147 171.887 117.466C172.23 116.956 172.091 116.26 171.581 115.926C171.071 115.583 170.375 115.722 170.041 116.232C168.51 118.524 163.64 121.019 161.144 121.743C159.706 119.581 157.906 117.049 156.737 115.435C154.706 112.614 153.648 110.75 153.156 107.725C153.036 106.983 152.906 106.25 152.767 105.536C152.878 105.554 152.999 105.573 153.119 105.573C154.195 105.573 155.077 104.701 155.077 103.615C155.077 102.539 154.205 101.658 153.119 101.658C152.711 101.658 152.331 101.788 152.015 102.001C151.774 100.962 151.542 100.118 151.375 99.6077C151.097 98.7821 150.735 97.808 150.364 96.806C150.16 96.268 149.956 95.7206 149.761 95.1825C150.41 94.83 150.856 94.8021 151.839 95.0526C152.433 95.2011 153.036 94.8393 153.184 94.2455C153.333 93.6518 152.971 93.0488 152.377 92.8911C151.171 92.5942 150.206 92.52 149.037 93.058C148.499 91.2026 148.286 86.6661 148.36 83.2706C148.434 79.8845 149.204 74.7449 150.531 71.4886C151.876 68.2045 153.936 65.6811 155.652 65.2265C156.246 65.0688 156.598 64.4565 156.441 63.8628C156.283 63.2691 155.671 62.9165 155.077 63.0742C152.173 63.8535 149.761 67.4902 148.472 70.6444C146.969 74.3182 146.208 79.736 146.134 83.2242C146.059 86.8238 146.273 91.6665 146.931 93.8002C147.284 94.9413 147.785 96.2865 148.267 97.5853C148.629 98.5594 148.982 99.5057 149.251 100.313C149.65 101.5 150.41 104.812 150.939 108.087C151.552 111.863 153.036 114.145 154.91 116.743C156.589 119.062 159.586 123.283 160.829 125.454L161.144 126.001C162.322 128.089 163.797 130.686 165.922 132.31C167.638 133.627 169.902 134.314 172.249 134.314C173.64 134.314 175.069 134.072 176.424 133.581C179.838 132.338 182.973 130.621 187.157 126.289C187.593 125.834 187.575 125.129 187.139 124.702Z" fill="#475658"/>
<path d="M263.36 154.055C262.275 151.152 259.083 147.673 256.467 145.372C253.944 143.164 237.282 131.493 231.827 128.172C233.042 127.606 234.258 126.818 235.464 125.723C235.918 125.305 235.955 124.61 235.538 124.146C235.12 123.691 234.415 123.654 233.961 124.072C227.374 130.046 220.268 125.677 214.534 122.142C208.857 118.654 203.55 108.226 201.027 100.016C200.851 99.4315 200.229 99.0975 199.635 99.283C199.051 99.4593 198.717 100.09 198.902 100.675C201.639 109.562 207.168 120.231 213.393 124.062C217.197 126.4 221.891 129.295 226.817 129.295C227.587 129.295 228.367 129.22 229.137 129.063C229.239 129.211 229.369 129.341 229.536 129.434C232.634 130.983 252.413 144.806 254.983 147.06C257.284 149.074 260.317 152.33 261.254 154.844C261.421 155.289 261.848 155.568 262.293 155.568C262.423 155.568 262.553 155.549 262.683 155.493C263.286 155.271 263.574 154.631 263.36 154.055Z" fill="#475658"/>
<path d="M227.968 130.371C227.402 130.612 227.133 131.261 227.374 131.827C228.914 135.473 227.04 146.856 225.379 151.105L216.019 153.814C215.546 153.953 215.221 154.38 215.212 154.872C215.202 155.363 215.527 155.799 215.991 155.948L222.327 157.943C217.818 165.448 212.493 172.86 208.18 178.881C206.352 181.432 204.766 183.64 203.55 185.431C199.144 191.925 193.893 205.21 191.759 213.55C191.601 214.144 191.963 214.756 192.557 214.904C192.65 214.932 192.742 214.941 192.835 214.941C193.336 214.941 193.781 214.607 193.911 214.106C195.961 206.119 201.175 192.899 205.387 186.692C206.584 184.93 208.161 182.731 209.979 180.189C214.553 173.806 220.249 165.874 224.962 157.878C225.138 157.581 225.166 157.228 225.045 156.913C224.925 156.597 224.665 156.356 224.34 156.254L220.184 154.946L226.511 153.118C226.827 153.026 227.086 152.803 227.216 152.497C229.072 148.322 231.307 135.455 229.424 130.983C229.192 130.399 228.543 130.139 227.968 130.371Z" fill="#475658"/>
<path d="M227.42 132.44C227.226 131.855 226.585 131.549 226.01 131.744C217.67 134.601 209.228 128.321 205.545 124.164C202.641 120.88 201.324 117.438 199.765 111.854C199.598 111.26 198.986 110.917 198.392 111.084C197.798 111.251 197.455 111.863 197.622 112.457C199.264 118.375 200.684 122.031 203.875 125.649C205.981 128.033 209.525 131.029 213.783 132.903C209.089 134.156 202.873 133.692 198.466 129.721C194.561 126.215 193.021 119.925 190.887 111.223C190.071 107.892 189.143 104.107 187.965 100.007C186.091 93.4941 183.966 88.1226 181.294 83.1222C182.63 83.2799 183.994 83.3634 185.404 83.3634C186.016 83.3634 186.517 82.8624 186.517 82.2501C186.517 81.6378 186.016 81.1369 185.404 81.1369C181.341 81.1369 177.667 80.4411 174.179 79.0217C168.297 76.6189 163.436 72.1473 159.716 65.7461C159.409 65.2173 158.723 65.0317 158.194 65.3379C157.665 65.644 157.48 66.3305 157.786 66.8593C161.757 73.6966 166.989 78.4743 173.325 81.0719C175.255 81.8605 177.231 82.4357 179.281 82.816C179.059 83.15 179.012 83.5861 179.216 83.9571C181.869 88.874 183.966 94.1713 185.822 100.619C186.99 104.673 187.909 108.43 188.725 111.742C190.952 120.834 192.566 127.402 196.982 131.363C200.461 134.49 204.895 135.724 209.052 135.724C211.825 135.724 214.488 135.176 216.65 134.267C216.789 134.212 216.909 134.128 217.002 134.026C217.605 134.193 218.217 134.332 218.839 134.434C218.459 134.546 218.152 134.852 218.06 135.26C217.382 138.637 216.353 142.208 215.175 145.307C213.755 149.027 210.573 155.234 207.103 161.737C206.955 161.765 206.816 161.82 206.686 161.913C194.347 170.587 186.87 173.946 183.14 172.461C181.461 171.793 180.385 170.068 179.773 167.053C179.717 166.802 179.578 166.598 179.392 166.44C181.628 158.332 185.005 148.452 188.605 143.229C188.614 143.294 188.633 143.368 188.642 143.433C188.716 143.832 188.79 144.231 188.874 144.658C188.976 145.186 189.449 145.548 189.968 145.548C190.043 145.548 190.117 145.539 190.191 145.53C190.794 145.409 191.184 144.825 191.063 144.222C190.98 143.813 190.915 143.424 190.841 143.034C190.516 141.262 190.21 139.592 189.152 137.598C187.955 135.353 185.58 131.345 183.076 129.675C182.565 129.332 181.869 129.471 181.535 129.981C181.192 130.491 181.331 131.187 181.842 131.521C183.28 132.477 185.079 134.824 186.833 137.997C186.48 138.154 186.081 138.331 185.617 138.535C177.528 142.144 174.754 143.693 174.216 144.917C173.965 145.483 174.207 146.17 174.763 146.42C174.921 146.485 175.079 146.522 175.236 146.522C175.654 146.522 176.034 146.29 176.22 145.882C176.637 145.298 179.021 144.064 181.461 142.895C178.799 145.316 175.784 149.38 173.91 152.283C173.715 152.58 173.678 152.951 173.808 153.285C173.938 153.619 174.216 153.87 174.55 153.963L176.452 154.482L172.62 156.273C172.314 156.412 172.091 156.69 172.008 157.015C169.253 168.24 168.464 180.273 168.909 187.203C169.429 195.348 170.551 202.955 171.915 207.538C172.064 208.021 172.5 208.336 172.982 208.336C173.084 208.336 173.195 208.318 173.297 208.29C173.882 208.113 174.225 207.492 174.049 206.907C172.731 202.473 171.637 195.06 171.127 187.073C170.7 180.412 171.451 168.927 174.049 158.072L180.153 155.224C180.58 155.03 180.83 154.584 180.793 154.12C180.756 153.656 180.432 153.267 179.977 153.137L176.637 152.228C178.66 149.25 181.35 145.864 183.474 144.092C183.948 143.702 184.012 142.997 183.614 142.524C183.456 142.329 183.243 142.227 183.02 142.171C184.449 141.513 185.757 140.928 186.536 140.576C187.018 140.362 187.445 140.167 187.816 140.001C187.946 140.353 188.057 140.696 188.159 141.04C187.779 140.993 187.38 141.132 187.13 141.476C180.933 149.964 175.821 170.42 174.754 176.515C173.529 183.501 174.318 194.764 174.735 200.822C174.875 202.835 174.995 204.532 175.106 206.008C175.375 209.718 175.533 211.963 175.617 214.06C175.635 214.663 176.136 215.136 176.73 215.136C176.748 215.136 176.758 215.136 176.767 215.136C177.379 215.118 177.862 214.598 177.843 213.986C177.76 211.843 177.602 209.589 177.333 205.85C177.231 204.375 177.101 202.677 176.962 200.664C176.544 194.708 175.774 183.612 176.943 176.896C177.231 175.272 177.732 172.944 178.409 170.226C179.281 172.406 180.571 173.825 182.333 174.521C183.15 174.846 184.068 175.013 185.098 175.013C189.393 175.013 195.637 172.099 204.905 165.847C204.181 167.192 203.448 168.537 202.734 169.854C200.09 174.725 197.604 179.317 195.971 182.573C191.341 191.823 188.15 205.126 187.139 213.559C187.065 214.171 187.501 214.719 188.113 214.793C188.159 214.802 188.206 214.802 188.243 214.802C188.8 214.802 189.282 214.385 189.347 213.819C190.34 205.562 193.457 192.574 197.965 183.566C199.57 180.347 202.057 175.764 204.691 170.912C209.627 161.811 215.212 151.504 217.271 146.086C218.486 142.876 219.553 139.184 220.258 135.687C220.351 135.223 220.138 134.777 219.767 134.536C220.398 134.61 221.038 134.657 221.687 134.657C223.348 134.657 225.045 134.406 226.743 133.822C227.309 133.655 227.615 133.024 227.42 132.44Z" fill="#475658"/>
<circle cx="114.316" cy="14.0783" r="10" transform="rotate(-63.5433 114.316 14.0783)" stroke="#E0E0E0"/>
<circle cx="124.635" cy="31.5002" r="7" transform="rotate(-63.5433 124.635 31.5002)" stroke="#E0E0E0"/>
<circle cx="131.368" cy="44.9039" r="4" transform="rotate(-63.5433 131.368 44.9039)" stroke="#E0E0E0"/>
</svg>
