<svg width="188" height="245" viewBox="0 0 188 245" fill="none" xmlns="http://www.w3.org/2000/svg">
<path d="M89.0205 30.7254C85.7364 37.7018 79.1681 43.3423 73.2215 47.248C71.5794 52.3783 67.9706 61.7111 67.4789 63.7706C65.8368 58.6404 65.3359 54.6233 63.5825 54.5398C61.8291 54.4563 60.2984 55.8758 59.6861 59.1599C59.0738 62.444 58.7583 65.2179 59.7881 70.1348C60.7437 74.7177 61.9404 78.243 66.0502 77.8255C66.4584 82.5476 65.8461 85.8317 68.1005 90.1363C70.3548 94.4502 75.281 102.447 74.8728 107.986C69.3343 108.802 66.0502 107.986 64.204 105.731C62.3579 103.477 61.6435 101.213 60.9199 98.1425C57.4317 97.1128 55.5856 92.6041 55.9938 89.3199C51.9953 86.1379 50.3532 80.4974 50.1491 75.7753C49.945 71.0532 51.2809 63.6686 54.3517 58.3342C57.4317 52.9998 61.7363 48.0737 64.204 45.6152C66.6625 43.1568 68.8241 39.7706 70.262 35.0485C71.7 30.3264 74.78 27.367 78.0641 25.5023C81.1442 23.7582 85.3467 24.2684 87.8144 25.7064C90.4863 23.248 93.8724 21.912 99.0027 21.912C104.133 21.912 108.651 24.4725 113.364 28.9905C118.086 33.5085 121.37 38.3234 124.654 45.5132C127.938 52.6937 130.193 57.824 130.814 65.422C131.436 73.02 132.864 82.1487 133.792 87.4831C134.562 91.9454 133.996 96.3056 132.762 98.56C131.528 100.814 128.56 104.618 125.174 103.996C122.502 107.995 118.809 109.229 115.943 109.025C113.271 112.105 107.426 114.053 101.786 111.075C101.99 106.761 102.398 102.456 103.02 99.998C105.58 97.4375 107.946 94.0513 110.404 90.7672C111.017 82.1487 111.434 69.8379 113.076 64.2994C110.72 61.5256 109.384 54.0389 108.354 47.4706C107.324 40.9024 105.682 34.5383 101.99 31.8757C98.2605 29.1853 94.7723 29.2874 89.0205 30.7254Z" fill="#D44B4B"/>
<path d="M127.428 105.175C127.038 105.175 126.658 104.97 126.454 104.599C126.157 104.061 126.352 103.384 126.89 103.087C131.361 100.629 133.978 95.081 133.263 89.5982L133.245 89.4683C132.54 84.0412 131.352 74.9588 131.593 66.8599C131.816 59.234 129.348 52.5916 123.736 40.6055C118.178 28.74 107.927 21.2904 102.751 20.0009C97.0729 18.5815 90.4398 19.769 89.7162 20.9379C89.3914 21.4574 88.7049 21.6151 88.1854 21.2904C87.6659 20.9657 87.5082 20.2792 87.8329 19.7597C89.5121 17.0693 97.7409 16.457 103.298 17.8486C109.05 19.2866 119.821 27.0052 125.758 39.6685C131.528 51.9886 134.07 58.8537 133.829 66.9341C133.597 74.8568 134.766 83.8278 135.462 89.19L135.48 89.3199C136.315 95.684 133.226 102.15 127.966 105.045C127.79 105.137 127.613 105.175 127.428 105.175Z" fill="#475658"/>
<path d="M119.691 109.581C119.227 109.581 118.8 109.294 118.642 108.83C118.438 108.245 118.754 107.614 119.329 107.41C122.103 106.455 124.255 103.959 125.229 100.545C126.175 97.2147 127.02 89.4868 125.443 81.8332C125.322 81.2302 125.702 80.6457 126.305 80.5158C126.908 80.3952 127.493 80.7756 127.623 81.3786C129.404 90.0527 128.235 98.1053 127.363 101.148C126.185 105.267 123.522 108.31 120.052 109.507C119.932 109.563 119.811 109.581 119.691 109.581Z" fill="#475658"/>
<path d="M87.7401 31.7272C87.2021 31.4211 86.5248 31.6159 86.2187 32.1447C83.0273 37.7666 76.5612 44.0844 72.5256 46.4593C72.2844 46.5985 72.1081 46.8212 72.0246 47.0809C71.5144 48.7044 70.7629 50.7083 69.9837 52.8235C69.0745 55.2819 68.0818 57.9538 67.2933 60.4679C66.8387 56.2746 66.0409 54.1594 64.6307 53.4265C64.0927 53.1482 63.2206 52.9441 62.0981 53.5749C59.417 55.0593 57.9419 58.2042 57.9419 62.4346C57.9419 66.5908 58.2017 69.1884 58.9346 72.3798C59.5376 74.9774 60.3447 78.4841 63.267 78.4841C63.4061 78.4841 63.5546 78.4749 63.703 78.4563C64.3153 78.3914 64.7513 77.8347 64.6864 77.2224C64.6215 76.6101 64.0648 76.1741 63.4525 76.2391C62.4599 76.3504 61.8847 75.2835 61.0961 71.8695C60.4003 68.8637 60.1591 66.396 60.1591 62.4254C60.1591 59.0485 61.226 56.59 63.1649 55.5139C63.2392 55.4768 63.4896 55.3469 63.5917 55.4025C63.7587 55.486 64.5936 56.1447 65.0853 60.839C65.1502 61.4513 65.6976 61.8966 66.3099 61.8316C66.5697 61.8038 66.7923 61.6739 66.9686 61.4976C66.7088 62.379 66.4769 63.2325 66.2913 64.0396C66.1522 64.6426 66.5326 65.2363 67.1263 65.3755C67.2098 65.394 67.2933 65.4033 67.3768 65.4033C67.887 65.4033 68.3416 65.0508 68.4622 64.5406C69.1951 61.3028 70.7166 57.2209 72.0617 53.612C72.7946 51.636 73.4904 49.762 74.01 48.1664C78.2867 45.5131 84.7622 39.2046 88.1391 33.2487C88.4638 32.7106 88.2689 32.0241 87.7401 31.7272Z" fill="#475658"/>
<path d="M89.4843 57.0817C89.2895 57.0817 89.1039 57.0353 88.9277 56.9333C86.3115 55.4118 81.7564 54.0202 78.4723 54.4655C77.8508 54.5398 77.3034 54.1223 77.2199 53.51C77.1364 52.8977 77.5632 52.3411 78.1755 52.2576C81.9976 51.7473 87.0351 53.2595 90.0502 55.0129C90.579 55.319 90.7646 56.0055 90.4491 56.5343C90.2358 56.8869 89.8647 57.0817 89.4843 57.0817Z" fill="#475658"/>
<path d="M115.117 105.722C113.558 103.301 113.095 100.749 112.492 97.5301C112.325 96.6302 112.148 95.684 111.944 94.7006C111.23 91.3237 111.397 85.4605 112.436 76.7771C112.612 75.3391 112.9 73.5394 113.215 71.6376C114.226 65.4219 115.497 57.6847 114.57 51.7752C114.477 51.1721 113.902 50.7547 113.299 50.8474C112.696 50.9402 112.278 51.5154 112.371 52.1184C112.779 54.7438 112.714 57.8146 112.436 60.9595C111.619 58.464 110.979 55.152 110.321 51.6917C109.412 46.9696 108.475 42.0898 106.916 38.0078C105.265 33.7032 102.417 30.549 98.8819 29.1389C96.0617 28.0071 93.0559 28.072 90.4304 29.3244C89.8738 29.5842 89.6419 30.2521 89.9016 30.8088C90.1614 31.3654 90.8294 31.6066 91.386 31.3376C93.4455 30.3542 95.8112 30.3078 98.0563 31.2077C101.006 32.3859 103.409 35.0855 104.838 38.8057C106.332 42.7021 107.25 47.4891 108.141 52.1091C108.484 53.9089 108.827 55.6623 109.189 57.3043C106.795 56.9147 104.068 57.0631 101.962 57.7682C101.377 57.963 101.062 58.5939 101.266 59.1783C101.424 59.6422 101.86 59.9391 102.324 59.9391C102.444 59.9391 102.565 59.9205 102.676 59.8834C104.708 59.1969 107.565 59.1319 109.773 59.6979C110.219 61.3863 110.71 62.8892 111.304 64.0767C111.453 64.3828 111.731 64.5776 112.037 64.6519C111.731 66.934 111.369 69.1884 111.035 71.2665C110.72 73.1961 110.423 75.0237 110.246 76.4988C109.161 85.5533 109.013 91.4721 109.783 95.1459C109.987 96.1107 110.154 97.0384 110.321 97.9198C110.933 101.25 111.471 104.126 113.262 106.919C113.475 107.253 113.837 107.429 114.199 107.429C114.403 107.429 114.616 107.373 114.802 107.253C115.303 106.928 115.451 106.232 115.117 105.722Z" fill="#475658"/>
<path d="M95.0878 80.4695C94.5497 80.4695 94.0766 80.0798 93.9931 79.5232C93.4457 75.9793 95.598 70.6078 96.9339 67.7226C97.1937 67.166 97.8524 66.9155 98.409 67.1753C98.9656 67.435 99.2068 68.0937 98.9564 68.6504C96.8968 73.1034 95.8671 77.0462 96.1918 79.1799C96.2845 79.7922 95.8671 80.3581 95.264 80.4509C95.1991 80.4602 95.1434 80.4695 95.0878 80.4695Z" fill="#475658"/>
<path d="M105.025 71.6088C106.188 71.42 106.978 70.324 106.789 69.1607C106.6 67.9975 105.504 67.2075 104.341 67.3963C103.178 67.5851 102.388 68.6812 102.577 69.8444C102.765 71.0076 103.862 71.7976 105.025 71.6088Z" fill="#475658"/>
<path d="M78.3145 64.754C78.3145 65.9322 79.27 66.8877 80.4482 66.8877C81.6264 66.8877 82.5819 65.9322 82.5819 64.754C82.5819 63.5758 81.6264 62.6202 80.4482 62.6202C79.2793 62.6202 78.3145 63.5758 78.3145 64.754Z" fill="#475658"/>
<path d="M127.168 164.623C126.983 164.623 126.797 164.576 126.63 164.484C126.092 164.187 125.897 163.509 126.194 162.971C127.14 161.274 128.291 158.611 129.636 155.531C132.976 147.859 137.122 138.313 142.132 133.544C142.577 133.117 143.283 133.136 143.709 133.581C144.136 134.027 144.117 134.732 143.672 135.158C138.987 139.611 134.766 149.334 131.686 156.422C130.322 159.557 129.144 162.257 128.151 164.057C127.938 164.419 127.558 164.623 127.168 164.623Z" fill="#475658"/>
<path d="M8.01244 210.34C7.44653 210.34 6.92701 210.173 6.50026 209.839C5.93436 209.394 4.79327 208.021 6.40749 204.793C8.57835 200.451 17.67 194.708 23.1899 194.189C23.8022 194.133 24.3495 194.578 24.4052 195.191C24.4609 195.803 24.0156 196.35 23.4033 196.406C18.6533 196.851 10.239 202.111 8.40208 205.785C7.6228 207.344 7.79907 208.012 7.87328 208.086C7.96605 208.151 8.5969 208.142 9.46896 207.39C10.3317 206.648 10.8976 205.859 11.4543 205.099C12.2985 203.93 13.1705 202.714 14.9425 201.833C15.4898 201.564 16.1578 201.777 16.4361 202.334C16.7144 202.881 16.4918 203.549 15.9351 203.828C14.6549 204.468 14.0426 205.321 13.2633 206.407C12.6603 207.232 11.9831 208.179 10.9255 209.088C9.95137 209.914 8.9216 210.34 8.01244 210.34Z" fill="#475658"/>
<path d="M125.359 216.25C125.155 216.25 124.96 216.231 124.765 216.203C122.724 215.888 121.37 214.209 121.472 212.112C121.509 211.352 121.565 210.582 121.63 209.812C121.824 207.316 122.019 204.737 121.277 203.355C120.99 202.817 121.184 202.139 121.732 201.842C122.27 201.555 122.947 201.75 123.244 202.297C124.292 204.254 124.079 207.028 123.856 209.979C123.801 210.73 123.736 211.481 123.708 212.214C123.652 213.365 124.431 213.893 125.118 213.996C125.879 214.107 126.89 213.754 127.252 212.372C128.077 209.199 124.96 199.987 121.054 195.914C120.628 195.469 120.646 194.764 121.082 194.337C121.528 193.91 122.233 193.929 122.659 194.365C126.834 198.716 130.489 208.772 129.404 212.929C128.782 215.276 126.983 216.25 125.359 216.25Z" fill="#475658"/>
<path d="M149.285 136.596C148.756 136.281 148.069 136.448 147.754 136.977C147.439 137.506 147.606 138.183 148.134 138.498C148.793 138.981 150.556 143.359 150.305 149.056C150.231 150.8 150.148 154.557 150.046 159.307C149.814 169.836 149.507 184.262 149.006 187.602C148.227 192.779 145.5 201.973 141.149 210.814C138.097 217.029 135.453 220.434 132.048 224.562C129.209 228.014 124.171 227.55 116.963 225.676C110.293 223.95 61.4857 212.957 58.285 212.465C55.6782 212.066 55.3442 211.38 55.539 209.246C55.8544 205.748 57.7655 193.994 60.7806 189.087C62.6917 185.979 65.0481 185.329 66.1614 185.645C68.2116 186.229 113.911 196.221 116.573 196.666C117.186 196.768 117.752 196.36 117.854 195.748C117.882 195.571 117.854 195.395 117.807 195.237C119.885 193.744 121.388 192.176 122.39 190.45C123.93 189.634 126.407 187.417 127.085 185.691C127.344 185.042 127.354 184.448 127.131 183.928C128.309 183.428 129.441 182.852 130.229 182.268C132.206 180.802 132.744 178.39 131.5 176.525C131.426 176.405 131.324 176.321 131.213 176.238C131.732 175.653 132.131 174.985 132.521 174.067C132.994 172.963 132.753 171.794 131.909 171.015C131.009 170.18 129.255 169.716 127.047 170.875C126.955 170.922 126.825 170.987 126.695 171.052C126.788 170.022 126.546 168.983 125.953 168.25C125.572 167.786 124.134 166.395 121.546 168.102C119.524 169.428 115.052 171.738 112.38 173.13C111.582 173.547 110.933 173.881 110.571 174.076C109.94 174.419 109.235 174.828 108.558 175.31C111.378 168.575 114.152 160.346 115.646 154.566C118.104 145.02 117.455 128.479 113.169 119.508C118.819 121.679 127.697 124.944 133.922 127.236C137.503 128.553 140.314 129.583 141.334 129.982C143.579 130.845 146.613 132.208 147.04 134.101C147.151 134.62 147.615 134.973 148.125 134.973C148.209 134.973 148.283 134.964 148.366 134.945C148.969 134.815 149.35 134.212 149.211 133.618C148.57 130.733 145.277 129.11 142.132 127.904C141.102 127.505 138.282 126.475 134.683 125.148C127.446 122.486 116.592 118.497 111.48 116.465C110.729 115.482 110.042 114.674 109.347 113.849C111.675 113.561 113.846 112.643 115.238 111.103C115.646 110.648 115.618 109.943 115.154 109.535C114.699 109.127 113.994 109.155 113.586 109.618C111.555 111.873 106.331 112.698 102.908 110.351C102.843 110.305 102.76 110.286 102.686 110.258C102.788 107.086 103.149 103.894 103.892 101.13C103.957 100.907 103.919 100.684 103.845 100.471C105.2 99.1166 106.452 97.623 107.51 95.9995C107.844 95.4892 107.705 94.7935 107.185 94.4595C106.675 94.1255 105.979 94.2647 105.645 94.7842C101.925 100.49 96.1637 103.913 93.3342 105.045C89.9758 106.39 85.5042 105.833 82.8139 104.59C80.2534 103.412 78.7319 101.863 76.96 100.072L76.2456 99.3578C75.8096 98.9218 75.1045 98.9218 74.6685 99.3578C74.5572 99.4691 74.4737 99.599 74.4273 99.7289C74.0377 98.9496 73.5831 98.1703 73.0636 97.3818C71.1896 94.5708 68.7311 89.4962 68.0168 86.2028C67.2004 82.3992 67.5158 77.4452 67.7478 73.8271L67.7941 73.1405C67.8313 72.5283 67.3674 71.9995 66.7551 71.9624C66.1428 71.9067 65.614 72.3891 65.5769 73.0014L65.5305 73.6879C65.2893 77.4359 64.9646 82.5754 65.8459 86.6759C66.6252 90.2755 69.1857 95.582 71.2174 98.6249C72.7389 100.907 73.6202 103.087 73.8892 105.267C73.9635 105.833 74.4366 106.241 74.9932 106.241C75.0396 106.241 75.086 106.241 75.1324 106.232C75.7447 106.158 76.1714 105.601 76.0972 104.989C75.9488 103.802 75.6426 102.633 75.1973 101.445L75.3829 101.631C77.229 103.495 78.9638 105.258 81.8862 106.613C83.6952 107.448 86.2464 108.051 88.8904 108.051C90.6716 108.051 92.4992 107.772 94.1598 107.114C96.2658 106.269 98.7892 104.785 101.229 102.818C100.004 109.303 100.348 117.216 101.285 122.319V122.328C101.285 122.328 101.285 122.328 101.285 122.337C102.138 126.586 102.352 131.373 102.138 136.439C101.823 136.318 101.461 136.337 101.155 136.531C93.6867 141.346 76.1065 140.966 68.7311 135.817C68.4899 135.65 68.2023 135.594 67.924 135.632C67.7014 131.828 67.5993 128.247 67.6643 125.111C67.924 125.037 68.156 124.861 68.3044 124.61C69.529 122.495 72.3121 113.988 72.4327 110.119C72.4327 110.036 72.4049 109.962 72.3956 109.887C73.379 109.86 74.3902 109.73 75.3921 109.442C75.9859 109.275 76.3291 108.654 76.1529 108.069C75.9859 107.475 75.3736 107.132 74.7798 107.299C70.1876 108.607 65.2986 106.121 64.0833 103.894C62.0237 100.137 61.8475 97.6972 61.8475 91.129C61.8475 90.5167 61.3465 90.0157 60.7342 90.0157C60.1219 90.0157 59.621 90.5167 59.621 91.129C59.621 93.1236 59.6395 94.7656 59.723 96.2036C56.8471 92.7803 56.8193 87.882 59.6302 80.8499C59.8622 80.2747 59.5839 79.6346 59.0087 79.4026C58.4335 79.1707 57.7934 79.449 57.5614 80.0242C56.3647 83.0115 55.6596 85.6926 55.4277 88.1046C55.4462 87.8263 55.3627 87.548 55.1772 87.3253C53.0156 84.737 50.9283 81.4993 51.1602 73.1034C51.3736 65.4776 55.1679 55.9871 62.1351 45.6709C65.9202 40.0582 67.0334 36.6627 68.0075 33.6662C68.6847 31.5881 69.2692 29.7976 70.6979 27.6082C73.9727 22.58 81.58 20.4184 84.1405 22.0048C84.66 22.3295 85.3465 22.1718 85.6712 21.6523C85.9959 21.1328 85.8382 20.4462 85.3187 20.1215C81.5522 17.7744 72.711 20.4462 68.8332 26.3929C67.2468 28.8235 66.5881 30.8459 65.8923 32.9797C64.9646 35.8371 63.907 39.0748 60.2889 44.4277C55.27 51.868 49.2213 62.8707 48.9337 73.0478C48.6832 82.2136 51.1416 85.9616 53.4702 88.754C53.6929 89.0138 54.0083 89.1529 54.3237 89.1529C54.5742 89.1529 54.8247 89.0694 55.038 88.8932C55.2607 88.7076 55.3906 88.4479 55.4277 88.1788C55.038 92.3628 56.0956 95.7026 58.6097 98.2909C58.8324 98.5136 59.12 98.6249 59.4076 98.6249C59.5931 98.6249 59.7694 98.56 59.9364 98.4672C60.2518 100.796 60.8826 102.67 62.1351 104.952C63.0813 106.678 65.4377 108.449 68.3693 109.331C68.36 109.34 68.3415 109.349 68.3322 109.359C66.3098 111.743 63.0999 113.7 60.5208 115.277L59.6766 115.788C59.1571 116.103 58.9901 116.79 59.3055 117.309C58.8695 117.17 58.4149 117.309 58.1273 117.652C58.1273 117.55 58.1366 117.448 58.1088 117.346C57.9511 116.753 57.3388 116.391 56.745 116.558C55.5576 116.873 53.8042 117.309 51.8003 117.801C43.4694 119.86 36.3909 121.669 34.2108 122.885C30.8803 124.731 30.1103 127.041 29.4331 129.073C29.2382 129.657 29.5537 130.288 30.1381 130.483C30.2587 130.52 30.3701 130.538 30.4907 130.538C30.9545 130.538 31.3905 130.242 31.5483 129.778C32.1791 127.885 32.7265 126.252 35.2962 124.824C37.4021 123.655 46.3917 121.428 52.3384 119.953C54.3608 119.452 56.1235 119.016 57.3202 118.701C57.4408 118.673 57.5336 118.608 57.6356 118.543C50.0376 134.416 53.7949 153.713 55.6132 163.055C56.8378 169.345 58.4891 175.152 59.8158 179.819C60.2518 181.359 60.6507 182.76 60.9847 183.993C57.4594 183.372 52.7466 183.047 52.5147 183.029C52.2734 183.01 52.023 183.075 51.8189 183.214C51.522 183.409 51.2159 183.687 50.9004 184.003C50.7334 183.854 50.5201 183.734 50.2789 183.715C44.1466 183.131 39.7029 183.483 37.0403 184.773C36.8641 184.856 36.6878 184.958 36.5115 185.06C36.5023 185.023 36.5115 184.986 36.5023 184.949C35.7508 181.934 34.7953 175.635 34.2757 170.282C33.7748 165.142 33.7377 147.404 34.2108 140.632C34.2572 140.02 33.7933 139.482 33.181 139.444C32.5595 139.407 32.0399 139.862 31.9936 140.474C31.5019 147.488 31.5483 165.161 32.0585 170.495C32.5873 175.941 33.5707 182.388 34.3407 185.487C34.4149 185.765 34.5912 185.988 34.8138 186.136C33.3666 187.175 31.8451 188.484 30.435 189.69C29.5908 190.413 28.8022 191.09 28.1435 191.61C26.3252 193.039 25.2769 194.579 25.1192 196.063C25.0079 197.083 25.314 198.076 26.0098 198.92C27.9023 201.23 31.0751 201.861 34.2015 200.59C35.7972 201.332 37.8475 201.611 39.8049 201.611C40.8811 201.611 41.9201 201.527 42.8478 201.397C42.8386 201.472 42.8107 201.564 42.8015 201.639C42.7272 202.102 42.9406 202.557 43.3488 202.789C43.423 202.826 50.5293 206.88 52.7559 208.457C52.9228 208.578 53.1177 208.634 53.3125 208.652C53.3032 208.782 53.2847 208.903 53.2754 209.005C52.96 212.446 54.3051 214.079 57.9047 214.627C59.1014 214.812 66.7087 216.473 76.0972 218.56C73.7594 218.968 71.069 219.367 68.425 219.757C66.7829 219.998 65.178 220.239 63.7122 220.471C49.5089 222.716 21.3898 226.251 15.9162 225.286C9.40366 224.136 5.27533 221.603 3.64254 217.753C2.73338 215.629 0.933611 209.617 3.68893 199.811C6.04533 191.443 17.7809 158.574 19.9982 154.139C20.9073 152.33 22.0299 149.111 23.2174 145.707C24.8873 140.938 27.1787 134.407 28.5796 133.182C29.0434 132.774 29.0898 132.078 28.6816 131.615C28.2734 131.151 27.5776 131.104 27.1138 131.512C25.3975 133.015 23.6256 137.821 21.1207 144.983C19.9518 148.323 18.8478 151.468 18.0036 153.156C15.5637 158.027 3.70748 191.545 1.5459 199.227C-0.532183 206.611 -0.513629 213.69 1.59229 218.644C3.54049 223.227 8.23474 226.205 15.5266 227.494C16.2873 227.633 17.3913 227.689 18.755 227.689C22.9854 227.689 29.7485 227.104 36.9197 226.307C37.5227 231.4 38.1629 238.515 38.1629 243.646C38.1629 244.258 38.6638 244.759 39.2761 244.759C39.8884 244.759 40.3894 244.258 40.3894 243.646C40.3894 238.423 39.7493 231.214 39.137 226.056C48.8502 224.934 58.8788 223.505 64.0554 222.688C65.512 222.457 67.1076 222.225 68.7404 221.974C71.7277 221.529 74.7799 221.074 77.3403 220.61C78.5 227.735 79.2886 232.355 79.7617 234.702C79.8637 235.203 80.2905 235.574 80.8007 235.593C80.8193 235.593 80.8286 235.593 80.8471 235.593C81.3388 235.593 81.7748 235.268 81.914 234.795C82.8139 231.697 83.9642 227.336 85.6063 220.712C99.0582 223.737 113.002 226.937 116.342 227.8C119.375 228.589 122.576 229.303 125.526 229.303C127.307 229.303 128.986 229.025 130.489 228.366C130.109 233.218 130.146 237.087 130.22 243.506V243.896C130.229 244.508 130.721 245 131.333 245H131.343C131.955 244.991 132.447 244.49 132.447 243.877V243.497C132.372 236.409 132.326 232.457 132.855 226.854C133.152 226.585 133.43 226.288 133.699 225.963C137.197 221.714 139.915 218.217 143.078 211.779C147.838 202.102 150.389 192.872 151.14 187.918C151.66 184.439 151.975 169.938 152.207 159.344C152.309 154.789 152.393 150.865 152.467 149.139C152.764 143.731 151.214 137.747 149.285 136.596ZM70.2897 109.758C70.2804 109.785 70.2619 109.804 70.2619 109.832C70.2526 109.804 70.234 109.776 70.2248 109.748C70.2433 109.748 70.2619 109.748 70.2897 109.758ZM70.0392 110.806C70.1134 110.722 70.1505 110.62 70.1969 110.528C70.0114 112.735 69.0466 116.363 68.0725 119.285C68.3415 117.235 68.7404 115.584 69.3156 114.47C69.5939 113.923 69.3805 113.255 68.8332 112.967C68.4899 112.791 68.1003 112.828 67.7849 113.005C68.6105 112.309 69.3805 111.585 70.0392 110.806ZM103.483 121.92C103.483 121.911 103.483 121.92 103.483 121.92C103.02 119.396 102.704 116.168 102.667 112.782C103.827 113.366 105.125 113.728 106.461 113.877C106.768 114.238 107.064 114.591 107.352 114.934C108.205 115.936 109.003 116.882 109.912 118.07C109.968 118.144 110.033 118.209 110.107 118.265C110.117 118.45 110.154 118.626 110.256 118.793C115.098 126.521 115.989 144.389 113.503 154.028C111.434 162.062 106.591 175.505 102.973 181.971C102.825 182.24 102.797 182.546 102.871 182.824C101.368 185.079 99.7169 187.482 98.6871 188.753C98.2975 189.226 98.3717 189.931 98.8541 190.32C99.0582 190.487 99.3087 190.571 99.5499 190.571C99.8746 190.571 100.199 190.432 100.413 190.153C102.732 187.287 108.048 178.956 108.103 178.872C108.892 177.639 110.395 176.72 111.619 176.061C111.981 175.867 112.612 175.542 113.401 175.134C116.11 173.733 120.646 171.386 122.761 169.994C123.095 169.771 123.912 169.298 124.218 169.688C124.617 170.18 124.58 171.497 124.014 172.072C123.893 172.193 123.819 172.323 123.763 172.471C122.585 173.009 121.249 173.622 119.932 174.225C116.416 175.82 113.104 177.323 112.028 177.935C110.089 179.021 108.929 180.607 107.899 181.999L107.5 182.537C107.129 183.029 107.231 183.724 107.723 184.095C108.215 184.467 108.911 184.364 109.282 183.873L109.69 183.316C110.627 182.045 111.592 180.728 113.113 179.874C114.106 179.318 117.529 177.759 120.85 176.256C123.967 174.837 126.918 173.501 128.077 172.889C129.181 172.313 130.053 172.378 130.396 172.694C130.489 172.777 130.601 172.926 130.471 173.232C129.812 174.781 129.292 175.282 127.01 176.581C126.129 177.082 122.706 178.687 119.96 179.967C117.343 181.192 115.711 181.952 115.228 182.231C114.032 182.899 112.696 184.179 111.555 185.747C111.193 186.248 111.304 186.944 111.805 187.305C112 187.445 112.232 187.519 112.454 187.519C112.798 187.519 113.141 187.361 113.354 187.064C114.301 185.765 115.405 184.689 116.314 184.188C116.759 183.938 118.865 182.954 120.915 181.999C123.847 180.626 127.168 179.077 128.124 178.529C128.689 178.204 129.163 177.917 129.589 177.639C129.617 177.694 129.617 177.75 129.654 177.796C130.322 178.798 129.766 179.884 128.912 180.514C127.326 181.683 123.42 183.066 121.778 183.483C120.488 183.808 118.939 185.116 117.047 186.795C116.629 187.166 116.249 187.5 115.933 187.76C115.46 188.15 115.386 188.855 115.776 189.328C115.998 189.597 116.314 189.736 116.638 189.736C116.889 189.736 117.139 189.652 117.343 189.485C117.677 189.216 118.076 188.855 118.522 188.465C119.616 187.491 121.453 185.867 122.316 185.645C122.845 185.515 123.875 185.199 125.062 184.773C124.951 185.608 122.464 188.066 121.166 188.604C120.934 188.706 120.739 188.882 120.609 189.105C119.681 190.831 118.113 192.417 115.813 193.948C115.701 194.022 115.609 194.124 115.534 194.226C112.009 193.502 102.834 191.517 93.3713 189.458C93.5661 189.318 93.7145 189.114 93.7795 188.864L94.0114 188.038C99.2901 169.159 107.241 140.706 103.483 121.92ZM85.9217 142.218C92.0447 142.218 98.0655 141.022 102.036 138.591C100.96 154.863 95.7091 173.696 91.8777 187.389L91.6457 188.215C91.5622 188.511 91.6086 188.808 91.7478 189.049C85.0497 187.584 78.3608 186.109 73.5831 185.051C73.9727 184.81 74.1861 184.355 74.0933 183.891C72.8224 177.676 69.3156 155.884 68.091 138.044C72.4791 140.808 79.2514 142.218 85.9217 142.218ZM57.8119 162.647C56.0121 153.407 52.2549 134.184 59.9735 118.858C60.1498 118.506 60.1034 118.107 59.9178 117.792C60.0292 117.829 60.1498 117.856 60.2704 117.856C60.4652 117.856 60.6693 117.801 60.8548 117.689L61.6898 117.179C63.5081 116.066 65.6233 114.767 67.4973 113.236C67.4416 113.301 67.3767 113.357 67.3396 113.431C61.6248 124.517 70.4567 177.212 71.9132 184.327C71.941 184.467 71.9967 184.596 72.0709 184.708C69.1301 184.049 67.1633 183.594 66.7737 183.483C65.7532 183.196 64.4915 183.288 63.1927 183.864C63.2019 183.743 63.2019 183.622 63.1741 183.492C62.8401 182.231 62.4319 180.793 61.9774 179.206C60.66 174.596 59.0272 168.844 57.8119 162.647ZM43.154 199.134C40.5471 199.588 36.827 199.57 34.8324 198.419C34.5169 198.243 34.1273 198.225 33.8026 198.382C30.9638 199.727 28.7744 198.772 27.7725 197.538C27.457 197.148 27.3271 196.768 27.3735 196.332C27.4663 195.469 28.2456 194.421 29.5629 193.382C30.2587 192.835 31.0658 192.139 31.9286 191.397C33.8768 189.717 36.2982 187.639 38.0423 186.786C40.1946 185.738 44.1188 185.431 49.3882 185.877C47.0226 189.244 44.6012 194.718 43.4045 199.124C43.3303 199.134 43.2468 199.124 43.154 199.134ZM53.6465 206.37C51.4849 204.904 46.9205 202.269 45.1764 201.277C46.3268 195.72 50.2974 187.38 52.793 185.301C53.9619 185.394 57.4315 185.673 60.2054 186.136C59.7416 186.656 59.2963 187.24 58.8788 187.918C56.0585 192.51 54.3515 201.546 53.6465 206.37ZM81.1254 229.516C80.708 227.114 80.1977 224.015 79.5761 220.211C80.0678 220.109 80.5317 220.007 80.9584 219.896C81.079 219.868 81.1811 219.803 81.2739 219.748C82.0068 219.915 82.7489 220.082 83.4911 220.249C82.5541 224.015 81.7841 227.049 81.1254 229.516Z" fill="#475658"/>
<path d="M95.7866 92.7338C95.7165 92.7338 95.6405 92.7166 95.5704 92.682C92.1808 91.0596 86.6174 90.6022 83.4265 91.681C83.0467 91.8104 82.6727 91.4566 82.585 90.9043C82.4973 90.3433 82.7369 89.791 83.111 89.6615C86.5648 88.4965 92.3445 88.9711 95.997 90.7144C96.3652 90.887 96.5697 91.4738 96.447 92.0175C96.3593 92.4577 96.0846 92.7338 95.7866 92.7338Z" fill="#475658"/>
<circle cx="177.5" cy="10.5" r="10" stroke="#E0E0E0"/>
<circle cx="166.5" cy="27.5" r="7" stroke="#E0E0E0"/>
<circle cx="157.5" cy="39.5" r="4" stroke="#E0E0E0"/>
</svg>
